<svg version="1.1" viewBox="0 0 2000 2000" fill="white" xmlns="http://www.w3.org/2000/svg">
<rect x="0" y="0" width="2000" height="2000" fill="black"/>
<g  transform="translate(1000 1000) scale(0.7) translate(-1000 -1000)">
<path transform="translate(1860 135)" d="m0 0c23.2 17.9 30 47.8 33.6 75.5 1.34 11.1 1.4 22.2 1.32 33.3-0.024 3.5-0.02 7-0.014 10.5-0.031 37-0.031 37-5.55 43.6-1.94 1.76-1.94 1.76-3.96 3.33-1.31 1.14-2.62 2.28-3.92 3.42-0.654 0.551-1.31 1.1-1.98 1.67-2.59 2.33-4.78 4.93-7.04 7.59-4.34 4.94-9.16 9.46-13.9 14.1-3.63 3.6-7.2 7.19-10.5 11.1-4.83 5.63-10.2 10.7-15.5 15.9-3.63 3.6-7.2 7.19-10.5 11.1-4.83 5.63-10.2 10.7-15.5 15.9-4.26 4.22-8.33 8.51-12.2 13.1-4.14 4.65-8.68 8.94-13.1 13.3-3.5 3.47-6.93 6.94-10.1 10.7-4.84 5.64-10.2 10.8-15.5 16-3.63 3.6-7.2 7.19-10.5 11.1-4.83 5.63-10.2 10.7-15.5 15.9-3.63 3.6-7.2 7.19-10.5 11.1-4.83 5.63-10.2 10.7-15.5 15.9-3.63 3.6-7.2 7.19-10.5 11.1-4.83 5.63-10.2 10.7-15.5 15.9-3.63 3.6-7.2 7.19-10.5 11.1-4.83 5.63-10.2 10.7-15.5 15.9-3.63 3.6-7.2 7.19-10.5 11.1-4.83 5.63-10.2 10.7-15.5 15.9-4.26 4.22-8.33 8.51-12.2 13.1-4.14 4.65-8.68 8.94-13.1 13.3-3.5 3.47-6.93 6.94-10.1 10.7-4.84 5.64-10.2 10.8-15.5 16-3.63 3.6-7.2 7.19-10.5 11.1-4.83 5.63-10.2 10.7-15.5 15.9-3.63 3.6-7.2 7.19-10.5 11.1-4.83 5.63-10.2 10.7-15.5 15.9-3.63 3.6-7.2 7.19-10.5 11.1-4.83 5.63-10.2 10.7-15.5 15.9-3.63 3.6-7.2 7.19-10.5 11.1-4.83 5.63-10.2 10.7-15.5 15.9-3.63 3.6-7.2 7.19-10.5 11.1-4.83 5.63-10.2 10.7-15.5 15.9-4.26 4.22-8.33 8.51-12.2 13.1-4.14 4.65-8.68 8.94-13.1 13.3-3.5 3.47-6.93 6.94-10.1 10.7-4.84 5.64-10.2 10.8-15.5 16-3.63 3.6-7.2 7.19-10.5 11.1-4.83 5.63-10.2 10.7-15.5 15.9-3.63 3.6-7.2 7.19-10.5 11.1-4.83 5.63-10.2 10.7-15.5 15.9-3.63 3.6-7.2 7.19-10.5 11.1-4.83 5.63-10.2 10.7-15.5 15.9-3.63 3.6-7.2 7.19-10.5 11.1-4.83 5.63-10.2 10.7-15.5 15.9-3.63 3.6-7.2 7.19-10.5 11.1-4.83 5.63-10.2 10.7-15.5 15.9-4.26 4.22-8.33 8.51-12.2 13.1-4.14 4.65-8.68 8.94-13.1 13.3-4.16 4.12-8.12 8.31-11.9 12.7-3.07 3.47-6.38 6.71-9.68 9.97-0.684 0.68-1.37 1.36-2.07 2.06-1.66 1.65-3.32 3.3-4.99 4.94 4.05 4.94 8.36 9.38 13.1 13.7 0.98 0.905 0.98 0.905 1.98 1.83 1.98 1.83 3.97 3.66 5.96 5.48 1.14 1.05 2.27 2.1 3.41 3.15 3.19 2.95 6.39 5.9 9.59 8.85 7.52 6.93 15 13.9 22.5 20.9 3.82 3.57 7.66 7.12 11.5 10.6 5.15 4.71 10.3 9.47 15.4 14.2 6.19 5.78 12.4 11.5 18.6 17.3 7.52 6.93 15 13.9 22.5 20.9 4.78 4.46 9.6 8.89 14.4 13.3 4.2 3.85 8.36 7.76 12.5 11.7 3.84 3.58 7.69 7.15 11.6 10.7 5.15 4.71 10.3 9.47 15.4 14.2 6.19 5.78 12.4 11.5 18.6 17.3 7.52 6.93 15 13.9 22.5 20.9 4.78 4.46 9.6 8.89 14.4 13.3 4.2 3.85 8.36 7.76 12.5 11.7 3.84 3.58 7.69 7.15 11.6 10.7 5.18 4.73 10.3 9.52 15.4 14.3 3.84 3.58 7.69 7.15 11.6 10.7 5.15 4.71 10.3 9.47 15.4 14.2 6.19 5.78 12.4 11.5 18.6 17.3 7.52 6.93 15 13.9 22.5 20.9 4.78 4.46 9.6 8.89 14.4 13.3 4.2 3.85 8.36 7.76 12.5 11.7 3.84 3.58 7.69 7.15 11.6 10.7 5.18 4.73 10.3 9.52 15.4 14.3 3.84 3.58 7.69 7.15 11.6 10.7 5.15 4.71 10.3 9.47 15.4 14.2 6.19 5.78 12.4 11.5 18.6 17.3 7.52 6.93 15 13.9 22.5 20.9 4.78 4.46 9.6 8.89 14.4 13.3 4.2 3.85 8.36 7.76 12.5 11.7 3.84 3.58 7.69 7.15 11.6 10.7 5.15 4.71 10.3 9.47 15.4 14.2 6.19 5.78 12.4 11.5 18.6 17.3 7.52 6.93 15 13.9 22.5 20.9 4.78 4.46 9.6 8.89 14.4 13.3 4.2 3.85 8.36 7.76 12.5 11.7 3.84 3.58 7.69 7.15 11.6 10.7 5.18 4.73 10.3 9.52 15.4 14.3 3.84 3.58 7.69 7.15 11.6 10.7 5.15 4.71 10.3 9.47 15.4 14.2 6.19 5.78 12.4 11.5 18.6 17.3 11.4 10.5 11.4 10.5 16.8 15.5 0.637 0.595 1.27 1.19 1.93 1.8 1.28 1.2 2.55 2.39 3.82 3.6 2.9 2.73 5.82 5.4 8.87 7.95 1 0.849 2.01 1.7 3.04 2.57 0.886 0.72 1.77 1.44 2.68 2.18 2.58 3.26 2.09 5.28 1.88 9.38-0.349 2.11-0.768 4.21-1.25 6.3-0.274 1.19-0.549 2.38-0.832 3.61-0.303 1.27-0.606 2.53-0.918 3.84-0.233 0.985-0.233 0.985-0.471 1.99-11.4 48-30.4 112-75 141-19 11.4-39.4 15.3-61.2 10.4-30-7.93-54.1-28.9-77.6-48.2-1.58-1.3-3.16-2.59-4.75-3.87-5.45-4.43-10.8-8.94-16.2-13.5-3.37-2.86-6.77-5.67-10.2-8.46-5.7-4.64-11.2-9.46-16.8-14.3-3.7-3.22-7.43-6.41-11.2-9.59-4.89-4.18-9.71-8.43-14.5-12.8-4.39-3.97-8.85-7.85-13.4-11.7-6.58-5.6-13-11.3-19.4-17.2-3.45-3.22-6.95-6.36-10.5-9.45-2.34-2.04-4.65-4.12-6.96-6.21-2.94-2.65-5.89-5.28-8.88-7.88-3.97-3.45-7.83-7.02-11.7-10.6-2.78-2.55-5.57-5.08-8.42-7.55-3.93-3.41-7.75-6.93-11.6-10.5-2.76-2.53-5.53-5.04-8.36-7.48-5.24-4.55-10.3-9.3-15.4-14-6.99-6.47-14-12.9-21.1-19.2-4.37-3.94-8.69-7.92-13-11.9-2.51-2.3-5.02-4.61-7.53-6.91-1-0.916-2-1.83-3-2.75-0.495-0.453-0.99-0.907-1.5-1.38l-4.5-4.12c-0.495-0.453-0.99-0.907-1.5-1.37-1-0.918-2-1.84-3-2.75-2.49-2.28-4.97-4.56-7.46-6.84-6.81-6.24-13.6-12.5-20.4-18.8-2.17-2.01-4.34-4.01-6.52-6.02l-3.25-3c-2.68-2.48-5.37-4.95-8.05-7.42-6.46-5.95-12.9-11.9-19.3-17.9-3.82-3.57-7.66-7.11-11.5-10.6-6.4-5.85-12.7-11.8-19.1-17.7-3.14-2.94-6.28-5.87-9.42-8.8-3.78-3.52-7.55-7.04-11.3-10.6-5.84-5.45-11.7-10.9-17.6-16.3-6.48-5.96-12.9-12-19.3-18-4.12-3.89-8.26-7.76-12.4-11.6-0.655-0.615-1.31-1.23-1.99-1.86-1.32-1.24-2.64-2.48-3.97-3.72-1.99-1.87-3.99-3.74-5.98-5.6-0.661-0.62-1.32-1.24-2-1.88-1.33-1.24-2.65-2.49-3.98-3.73-3.44-3.23-6.89-6.45-10.3-9.67-0.711-0.664-1.42-1.33-2.16-2.01-1.34-1.26-2.69-2.51-4.04-3.77-3.12-2.92-6.2-5.88-9.21-8.91-2.31-2.32-4.64-4.54-7.15-6.65-3.01-2.59-5.84-5.3-8.62-8.12-2.75-2.79-5.53-5.45-8.5-8s-5.75-5.21-8.5-8c-2.71-2.74-5.44-5.37-8.38-7.88-3.37-2.89-6.51-5.97-9.62-9.12-3.69-3.74-7.48-7.28-11.5-10.7-3.35-2.98-6.44-6.22-9.59-9.41-2.07-2.04-4.16-3.96-6.37-5.84-3.35-2.86-6.47-5.93-9.56-9.06-3.05-3.1-6.12-6.12-9.44-8.94-3.54-3.02-6.8-6.26-10.1-9.56-3.22-3.26-6.44-6.47-9.94-9.44-4.34-3.69-8.28-7.76-12.3-11.8-3.44-3.46-6.96-6.73-10.7-9.89-2.81-2.51-5.44-5.19-8.09-7.87-3.2-3.24-6.39-6.43-9.88-9.38-4.59-3.9-8.75-8.23-13-12.5-3.58-3.61-7.24-7.04-11.1-10.3-4.55-4.04-8.76-8.46-13-12.8-4.33 1.67-7.13 4.88-10.3 8.12-0.543 0.544-1.09 1.09-1.65 1.65-2.9 2.93-5.68 5.93-8.36 9.06-4.91 5.67-10.3 10.8-15.6 16.1-3.63 3.6-7.2 7.19-10.5 11.1-4.83 5.63-10.2 10.7-15.5 15.9-3.63 3.6-7.2 7.19-10.5 11.1-4.83 5.63-10.2 10.7-15.5 15.9-3.63 3.6-7.2 7.19-10.5 11.1-4.83 5.63-10.2 10.7-15.5 15.9-3.63 3.6-7.2 7.19-10.5 11.1-4.83 5.63-10.2 10.7-15.5 15.9-3.63 3.6-7.2 7.19-10.5 11.1-4.83 5.63-10.2 10.7-15.5 15.9-4.26 4.22-8.33 8.51-12.2 13.1-4.14 4.65-8.68 8.94-13.1 13.3-3.5 3.47-6.93 6.94-10.1 10.7-4.84 5.64-10.2 10.8-15.5 16-3.63 3.6-7.2 7.19-10.5 11.1-4.83 5.63-10.2 10.7-15.5 15.9-3.63 3.6-7.2 7.19-10.5 11.1-4.83 5.63-10.2 10.7-15.5 15.9-3.63 3.6-7.2 7.19-10.5 11.1-4.83 5.63-10.2 10.7-15.5 15.9-3.63 3.6-7.2 7.19-10.5 11.1-4.83 5.63-10.2 10.7-15.5 15.9-3.63 3.6-7.2 7.19-10.5 11.1-4.83 5.63-10.2 10.7-15.5 15.9-4.26 4.22-8.33 8.51-12.2 13.1-4.14 4.65-8.68 8.94-13.1 13.3-3.5 3.47-6.93 6.94-10.1 10.7-4.84 5.64-10.2 10.8-15.5 16-3.63 3.6-7.2 7.19-10.5 11.1-4.83 5.63-10.2 10.7-15.5 15.9-3.63 3.6-7.2 7.19-10.5 11.1-4.83 5.63-10.2 10.7-15.5 15.9-3.63 3.6-7.2 7.19-10.5 11.1-4.83 5.63-10.2 10.7-15.5 15.9-3.63 3.6-7.2 7.19-10.5 11.1-4.83 5.63-10.2 10.7-15.5 15.9-3.63 3.6-7.2 7.19-10.5 11.1-4.83 5.63-10.2 10.7-15.5 15.9-4.26 4.22-8.33 8.51-12.2 13.1-4.14 4.65-8.68 8.94-13.1 13.3-3.5 3.47-6.93 6.94-10.1 10.7-4.84 5.64-10.2 10.8-15.5 16-3.63 3.6-7.2 7.19-10.5 11.1-4.83 5.63-10.2 10.7-15.5 15.9-4.28 4.23-8.39 8.53-12.3 13.1-3.1 3.57-6.32 7.01-9.59 10.4-0.656 0.718-1.31 1.44-1.99 2.18-0.992 1.02-0.992 1.02-2 2.07-0.868 0.921-0.868 0.921-1.75 1.86-6.79 4.15-17.5 2.63-25.2 2.66-0.662 3e-3 -1.32 6e-3 -2 9e-3 -3.52 0.015-7.04 0.024-10.6 0.029-2.84 4e-3 -5.69 0.018-8.53 0.041-43.6 0.345-98.9-1.02-132-33.3-9.84-11.1-12-23.3-11.4-37.8 0.493-7.6 2.52-14.3 5.44-21.2 0.284-0.69 0.568-1.38 0.861-2.09 10.3-24.4 28-44.9 44.7-65.2 2.02-2.45 4.02-4.92 6.02-7.38 3.71-4.53 7.49-9.01 11.3-13.5 2.95-3.47 5.85-6.99 8.72-10.5 3.58-4.4 7.32-8.6 11.1-12.8 2.29-2.57 4.46-5.22 6.62-7.9 3.68-4.55 7.55-8.86 11.5-13.1 2.97-3.21 5.78-6.5 8.52-9.92 4.36-5.42 9.04-10.5 13.8-15.6 2.76-2.96 5.43-5.98 8.08-9.04 2.04-2.34 4.12-4.65 6.21-6.96 2.69-2.98 5.36-5.97 8-9 4.11-4.72 8.31-9.36 12.5-14 1.5-1.67 3-3.33 4.5-5 27-30 27-30 29.3-32.5 1.48-1.64 2.95-3.28 4.42-4.92 4.55-5.06 9.13-10.1 13.7-15.1 2.88-3.14 5.74-6.29 8.59-9.46 4.66-5.19 9.37-10.3 14.1-15.5 2.3-2.51 4.6-5.02 6.91-7.53 0.917-1 1.83-2 2.75-3 0.454-0.495 0.908-0.99 1.38-1.5 8.71-9.5 17.4-19 26.1-28.5 0.454-0.494 0.907-0.989 1.37-1.5 0.919-1 1.84-2 2.76-3.01 2.26-2.46 4.51-4.92 6.76-7.39 5.68-6.21 11.4-12.4 17.2-18.5 4.53-4.85 9.02-9.73 13.5-14.6 7.78-8.5 15.6-16.9 23.5-25.4 3.73-3.99 7.44-8 11.1-12 5.13-5.57 10.3-11.1 15.5-16.6 3.88-4.13 7.73-8.28 11.6-12.4 6.31-6.86 12.7-13.7 19.1-20.5 3.14-3.35 6.28-6.7 9.42-10 1.25-1.33 2.5-2.67 3.75-4 0.619-0.66 1.24-1.32 1.88-2 6.88-7.33 13.8-14.7 20.6-22 0.619-0.66 1.24-1.32 1.88-2 1.25-1.34 2.5-2.67 3.75-4 3.11-3.32 6.23-6.64 9.34-9.96 7.73-8.25 15.5-16.5 23.2-24.7 2.8-2.97 5.6-5.95 8.39-8.93 0.711-0.757 1.42-1.51 2.15-2.29 1.35-1.44 2.69-2.87 4.04-4.31 3.04-3.23 6.1-6.42 9.25-9.55 2.29-2.28 4.48-4.58 6.56-7.06 2.76-3.21 5.67-6.21 8.69-9.19 2.93-2.9 5.76-5.8 8.44-8.94 3.31-3.87 6.89-7.42 10.5-11 3.25-3.22 6.27-6.56 9.24-10 2.18-2.44 4.48-4.73 6.81-7.03 2.91-2.88 5.72-5.76 8.38-8.88 3.04-3.56 6.3-6.84 9.62-10.1 3.28-3.24 6.51-6.48 9.5-10 2.99-3.52 6.22-6.76 9.5-10 3.26-3.22 6.47-6.44 9.44-9.94 3.16-3.72 6.59-7.13 10.1-10.6 3.45-3.41 6.86-6.8 10-10.5 3.14-3.7 6.55-7.09 10-10.5 4.01-3.96 7.85-7.97 11.5-12.3 3.45-3.82 7.16-7.38 10.9-10.9 4.2-4.11 7.75-8.48 11.1-13.3-2.33-2.36-4.66-4.71-7-7.06-0.648-0.657-1.3-1.31-1.96-1.99-3.19-3.21-6.41-6.32-9.85-9.26-5.86-5.05-11.2-10.6-16.6-16.1-6.57-6.68-6.57-6.68-13.5-13-6.24-5.34-11.9-11.3-17.6-17.2-6.95-7.1-6.95-7.1-14.3-13.8-7.08-6.04-13.5-12.9-20-19.5-1.83-1.85-3.67-3.7-5.5-5.54-0.546-0.555-1.09-1.11-1.66-1.68-2.88-2.9-5.83-5.67-8.93-8.34-3.95-3.42-7.65-7.04-11.3-10.8-0.658-0.662-1.32-1.32-1.99-2-2.78-2.79-5.55-5.59-8.32-8.39-2.04-2.06-4.08-4.12-6.13-6.17-0.611-0.62-1.22-1.24-1.85-1.88-3.03-3.05-6.12-5.98-9.37-8.78-4.27-3.69-8.24-7.64-12.2-11.6-0.747-0.751-1.49-1.5-2.26-2.27-3.16-3.18-6.31-6.36-9.46-9.54-2.32-2.34-4.64-4.67-6.96-7-0.699-0.707-1.4-1.42-2.12-2.14-3.22-3.23-6.47-6.37-9.93-9.34-4.92-4.24-9.45-8.84-14-13.5-1.41-1.42-2.82-2.84-4.24-4.26-2.95-2.96-5.89-5.93-8.84-8.9-2.44-2.45-4.87-4.9-7.31-7.35-1.82-1.83-3.64-3.66-5.45-5.49-3.58-3.59-7.15-7.14-11-10.4-5.68-4.88-10.9-10.3-16.1-15.6-1.98-2-3.97-3.99-5.96-5.98-4.93-4.95-9.86-9.9-14.8-14.8-4.17-4.19-8.35-8.39-12.5-12.6-1.94-1.95-3.89-3.91-5.83-5.86-1.21-1.21-2.41-2.42-3.62-3.63-0.794-0.802-0.794-0.802-1.6-1.62-2.75-2.75-5.56-5.37-8.51-7.9-4.08-3.56-7.93-7.29-11.7-11.1-0.708-0.707-1.42-1.41-2.15-2.14-2.35-2.35-4.7-4.7-7.05-7.05-1.69-1.69-3.39-3.38-5.08-5.08-4.11-4.11-8.22-8.22-12.3-12.3-3.34-3.34-6.68-6.68-10-10l-1.44-1.44c-0.97-0.969-1.94-1.94-2.91-2.91-9.07-9.07-18.1-18.1-27.2-27.2-7.77-7.78-15.5-15.5-23.3-23.3-9.04-9.04-18.1-18.1-27.1-27.1-0.965-0.966-1.93-1.93-2.9-2.9l-1.44-1.44c-3.33-3.34-6.67-6.67-10-10-4.5-4.49-8.99-8.99-13.5-13.5-1.65-1.65-3.29-3.29-4.94-4.94-2.26-2.25-4.51-4.51-6.76-6.76-0.648-0.645-1.3-1.29-1.96-1.96-3.79-3.8-7.38-7.72-10.9-11.8-1.96-2.25-4.03-4.36-6.14-6.46-0.838-0.835-1.68-1.67-2.54-2.53-1.32-1.31-1.32-1.31-2.67-2.65-1.42-1.41-2.84-2.82-4.25-4.24-2.46-2.46-4.93-4.91-7.4-7.36-2.95-2.93-5.9-5.86-8.84-8.79-1.83-1.82-3.66-3.64-5.49-5.45-4.38-4.36-8.59-8.79-12.6-13.5-2.23-2.56-4.6-4.92-7.02-7.31-0.484-0.48-0.968-0.96-1.47-1.46-1.52-1.51-3.04-3.01-4.56-4.51-5.8-5.72-11.5-11.4-16.8-17.6-3.05-3.46-6.36-6.65-9.65-9.88-4.67-4.58-9.14-9.23-13.4-14.2-2.09-2.38-4.32-4.6-6.59-6.81-3.63-3.58-7.04-7.26-10.4-11.1-1.65-1.87-3.37-3.62-5.14-5.36-2.29-2.26-4.46-4.56-6.56-7-3.5-4.06-7.15-7.97-10.8-11.9-7.83-8.36-15.5-16.8-22.7-25.7-1.69-2.05-3.38-4.06-5.13-6.06-27.3-31.1-59.5-71-57.5-115 0.704-8.32 5.06-14.8 11.2-20.3 17.8-13.3 40.1-14.6 61.5-14.4 1.4 5e-3 1.4 5e-3 2.82 0.01 41.1 0.214 81.4 8.68 121 18.6 3.07 0.746 6.15 1.43 9.24 2.09 9.68 2.16 16 5.94 22.8 13.2 2.88 3.01 5.98 5.79 9.04 8.61 1.28 1.2 2.56 2.4 3.84 3.59 3.2 2.99 6.42 5.95 9.66 8.91 5.18 4.73 10.3 9.52 15.4 14.3 3.84 3.58 7.69 7.15 11.6 10.7 5.18 4.73 10.3 9.52 15.4 14.3 3.84 3.58 7.69 7.15 11.6 10.7 5.18 4.73 10.3 9.52 15.4 14.3 3.84 3.58 7.69 7.15 11.6 10.7 5.15 4.71 10.3 9.47 15.4 14.2 6.19 5.78 12.4 11.5 18.6 17.3 7.52 6.93 15 13.9 22.5 20.9 4.78 4.46 9.6 8.89 14.4 13.3 4.2 3.85 8.36 7.76 12.5 11.7 3.84 3.58 7.69 7.15 11.6 10.7 5.15 4.71 10.3 9.47 15.4 14.2 6.19 5.78 12.4 11.5 18.6 17.3 7.52 6.93 15 13.9 22.5 20.9 4.78 4.46 9.6 8.89 14.4 13.3 4.2 3.85 8.36 7.76 12.5 11.7 3.84 3.58 7.69 7.15 11.6 10.7 5.18 4.73 10.3 9.52 15.4 14.3 3.84 3.58 7.69 7.15 11.6 10.7 5.15 4.71 10.3 9.47 15.4 14.2 6.19 5.78 12.4 11.5 18.6 17.3 7.52 6.93 15 13.9 22.5 20.9 4.78 4.46 9.6 8.89 14.4 13.3 4.2 3.85 8.36 7.76 12.5 11.7 3.84 3.58 7.69 7.15 11.6 10.7 5.18 4.73 10.3 9.52 15.4 14.3 3.84 3.58 7.69 7.15 11.6 10.7 5.15 4.71 10.3 9.47 15.4 14.2 6.19 5.78 12.4 11.5 18.6 17.3 7.52 6.93 15 13.9 22.5 20.9 4.78 4.46 9.6 8.89 14.4 13.3 4.2 3.85 8.36 7.76 12.5 11.7 3.84 3.58 7.69 7.15 11.6 10.7 5.15 4.71 10.3 9.47 15.4 14.2 6.19 5.78 12.4 11.5 18.6 17.3 7.52 6.93 15 13.9 22.5 20.9 4.78 4.46 9.6 8.89 14.4 13.3 4.2 3.85 8.36 7.76 12.5 11.7 3.84 3.58 7.69 7.15 11.6 10.7 5.17 4.72 10.3 9.5 15.4 14.3 5.83 5.45 11.7 10.8 17.6 16.2 3.88-1.58 6.5-4.23 9.4-7.16 0.51-0.511 1.02-1.02 1.55-1.55 1.08-1.08 2.16-2.17 3.23-3.25 1.62-1.64 3.25-3.27 4.88-4.9 6.39-6.4 6.39-6.4 12.4-13.1 5.49-6.42 11.7-12.2 17.7-18.2 7.36-7.2 7.36-7.2 14.3-14.8 5.66-6.64 12.1-12.6 18.3-18.8 7.55-7.38 7.55-7.38 14.7-15.2 6.2-7.28 13.3-13.8 20.1-20.5 1.92-1.9 3.84-3.81 5.75-5.71 0.576-0.568 1.15-1.14 1.75-1.72 2.94-2.92 5.75-5.9 8.45-9.04 3.7-4.28 7.65-8.26 11.7-12.2 0.75-0.746 1.5-1.49 2.27-2.26 3.17-3.16 6.36-6.31 9.54-9.46 2.34-2.32 4.67-4.64 7-6.96 0.708-0.7 1.42-1.4 2.14-2.12 3.24-3.23 6.38-6.49 9.37-9.96 4.1-4.75 8.53-9.14 13-13.6 0.884-0.88 1.77-1.76 2.68-2.67 3.28-3.26 6.56-6.52 9.84-9.78 3.23-3.2 6.45-6.41 9.67-9.62 0.838-0.83 1.68-1.66 2.54-2.52 3.5-3.49 6.94-6.97 10.1-10.7 4.65-5.4 9.75-10.4 14.8-15.4 1.86-1.85 3.72-3.7 5.58-5.55 4.61-4.6 9.23-9.19 13.8-13.8 3.91-3.89 7.82-7.79 11.7-11.7 1.82-1.81 3.64-3.62 5.46-5.43 1.13-1.13 2.26-2.25 3.39-3.38 0.497-0.492 0.994-0.983 1.51-1.49 2.64-2.64 5.14-5.35 7.57-8.19 3.88-4.45 8-8.64 12.2-12.8 0.813-0.815 1.63-1.63 2.46-2.47 2.71-2.71 5.42-5.42 8.13-8.13 1.95-1.95 3.9-3.9 5.85-5.85 4.73-4.74 9.47-9.47 14.2-14.2 3.85-3.85 7.7-7.7 11.6-11.5 0.549-0.55 1.1-1.1 1.66-1.66 1.12-1.12 2.23-2.23 3.35-3.35 10.4-10.4 20.9-20.9 31.3-31.3 8.96-8.95 17.9-17.9 26.9-26.9 10.4-10.4 20.8-20.8 31.2-31.2 1.11-1.11 2.22-2.22 3.34-3.33 0.547-0.547 1.09-1.09 1.66-1.66 3.84-3.84 7.68-7.69 11.5-11.5 4.69-4.69 9.37-9.38 14.1-14.1 2.39-2.39 4.78-4.78 7.17-7.17 2.59-2.6 5.19-5.19 7.79-7.78 1.12-1.12 1.12-1.12 2.26-2.27 4.05-4.04 8.2-7.9 12.5-11.6 1.94-1.68 3.77-3.43 5.57-5.25 0.655-0.658 1.31-1.32 1.98-1.99 0.677-0.686 1.36-1.37 2.05-2.08 0.725-0.728 1.45-1.46 2.2-2.21 2.29-2.3 4.58-4.61 6.87-6.92 3.02-3.04 6.04-6.08 9.06-9.12 0.677-0.685 1.35-1.37 2.05-2.08 3.88-3.9 7.88-7.58 12-11.2 2.58-2.26 4.97-4.65 7.38-7.09 0.48-0.484 0.961-0.968 1.46-1.47 1.51-1.52 3.01-3.04 4.51-4.56 5.75-5.83 11.5-11.6 17.7-16.9 2.91-2.54 5.58-5.3 8.28-8.06 4.05-4.1 8.15-8.03 12.5-11.8 3.24-2.88 6.24-6.01 9.27-9.11 2.77-2.7 5.64-5.23 8.57-7.76 3.54-3.12 6.95-6.37 10.4-9.62 9.44-8.92 18.9-17.8 28.8-26.2 1.04-0.902 2.07-1.8 3.11-2.71 7.51-6.52 15.2-12.8 23-18.9 1.9-1.47 3.78-2.96 5.66-4.45 17.3-13.6 35.6-26 55.2-36 0.955-0.492 0.955-0.492 1.93-0.993 7.26-3.69 14.7-6.71 22.4-9.32 0.716-0.243 1.43-0.485 2.17-0.736 20.1-6.52 43-7.31 60.9 5.02z"/>
</g>
</svg>
