<svg version="1.1" viewBox="0 0 6021 3543" xmlns="http://www.w3.org/2000/svg"><path transform="translate(2188,1160)" d="m0 0c1 0.019 2 0.039 3.04 0.059 30.1 0.613 60.2 3.28 90 7.94 0.678 0.106 1.36 0.212 2.06 0.322 41.3 6.52 82.1 17 122 29.7 0.674 0.213 1.35 0.426 2.04 0.645 28.2 8.92 53.7 20.9 79 36.4 0.853 0.521 1.71 1.04 2.58 1.58 23.8 14.6 46.6 30.9 68.4 48.4 0.961 0.771 0.961 0.771 1.94 1.56 11.8 9.53 23.6 19.2 34.8 29.4 2.02 1.83 4.07 3.63 6.13 5.41 4.92 4.29 9.72 8.72 14.5 13.1 1.6 1.47 3.2 2.93 4.81 4.4 6.21 5.66 12.3 11.4 18.1 17.5 2.63 2.68 5.31 5.21 8.17 7.64 5.84 5.05 11.2 10.6 16.7 16 1.88 1.88 3.76 3.76 5.64 5.63 5.34 5.34 10.6 10.7 15.5 16.4 3.64 4.1 7.65 7.87 11.6 11.7 6.14 6.07 12 12.1 17.3 18.9 1.74 2.23 3.6 4.27 5.53 6.34 6.4 7.12 11.8 15.1 17.2 22.9 0.446 0.637 0.893 1.27 1.35 1.93 49 70.4 77.8 153 109 334 0.058 0.814 0.116 1.63 0.175 2.46 5.75 83.2-10.1 166-37.2 245-0.218 0.635-0.436 1.27-0.66 1.92-13.3 38.6-30.2 76.4-50.9 112-1.38 2.34-2.73 4.69-4.08 7.04-16.6 28.7-35.8 56.1-56.9 81.7-2.08 2.52-4.13 5.07-6.19 7.62-3.59 4.39-7.33 8.61-11.1 12.8-1.83 2.02-3.63 4.07-5.42 6.13-9.11 10.4-18.7 20.3-28.4 30.1-0.543 0.546-1.09 1.09-1.65 1.65-6.02 6.04-12.1 11.9-18.6 17.5-1.54 1.41-3.09 2.83-4.62 4.25-1.78 1.59-3.58 3.17-5.38 4.75-1.37 1.22-1.37 1.22-2.77 2.46-10.8 9.18-23.3 15.7-35.6 22.5-3.4 1.88-6.79 3.8-10.2 5.72-12.8 7.24-25.7 14.2-38.8 20.9-3.31 1.72-6.6 3.46-9.9 5.21-21.2 11.2-42.7 21.4-64.6 31.2-2.12 0.949-4.23 1.9-6.34 2.86-79.1 35.7-168 72.9-256 73.3-1.7 0.011-1.7 0.011-3.44 0.022-24.6 0.117-48.8 0.077-73.2-3.22-0.734-0.097-1.47-0.194-2.22-0.294-65.3-8.65-128-27.3-190-49.7-0.703-0.254-1.4-0.508-2.13-0.77-30-10.9-57.6-25.8-85.2-41.9-1.6-0.933-1.6-0.933-3.23-1.89-1.21-0.706-1.21-0.706-2.44-1.43 0.01 0.558 0.02 1.12 0.031 1.69 0.884 48.6 1.5 97.1 2.02 146 0.016 1.55 0.016 1.55 0.033 3.13 1.07 101 1.23 201 1.18 302-9e-3 17.7-7e-3 35.5 2e-3 53.2 0.09 182 0.09 182-1.19 258-0.021 1.24-0.041 2.48-0.063 3.76-3.75 221-3.75 221-26.4 337-26.4 24.2-66.6 32.3-101 37.7-1.24 0.199-2.47 0.398-3.75 0.602-19.9 3.01-39.8 4.03-59.9 3.96-1.09-1e-3 -2.18-3e-3 -3.31-5e-3 -16.5-0.046-32.7-0.49-48.9-3.31-1.53-0.257-1.53-0.257-3.09-0.52-21.3-3.69-52.9-10.1-66.9-28.5-35.6-66.2-22-183-26.1-325-0.029-1.31-0.029-1.31-0.059-2.65-0.312-14-0.578-27.9-0.816-41.9-0.02-1.18-0.04-2.36-0.061-3.58-0.91-53.6-1.29-107-1.55-161-0.016-3.4-0.033-6.8-0.049-10.2-0.54-111-0.22-221 3.14-526 0.378-24.6 0.753-49.2 0.769-73.8 1e-3 -0.759 2e-3 -1.52 3e-3 -2.3 0.032-25.3-0.794-50.5-2.68-75.8-1.47-20.3-1.73-40.7-1.74-61.1-3e-3 -2.5-7e-3 -4.99-0.01-7.49-6e-3 -5.2-8e-3 -10.4-7e-3 -15.6 0-5.22-7e-3 -10.4-0.021-15.7-0.086-33.2 0.376-66.3 2.21-99.5 0.039-0.72 0.078-1.44 0.118-2.18 0.468-8.65 1.02-17.3 1.63-25.9 0.081-1.16 0.161-2.33 0.245-3.52 2.25-32.2 5.18-64.5 9.12-96.6 1.52-12.6 1.95-25 2.05-37.6 0.182-22.3 1.27-44.3 3.68-66.4 1.56-14.4 2.59-28.5 2.78-43 0.783-56 9.08-111 23.8-165 0.395-1.46 0.788-2.92 1.18-4.38 6.78-25.4 17.2-48.3 29.3-71.6 1.64-3.18 3.25-6.36 4.86-9.55 6.07-11.9 12.5-23.6 19.2-35.2 2.44-4.28 4.82-8.59 7.17-12.9 26.8-49.4 58.7-97.7 95.3-140 2.4-2.82 4.73-5.69 7.05-8.58 4.25-5.22 8.77-10.2 13.4-15.1 2.47-2.64 4.88-5.34 7.28-8.04 5.09-5.67 10.4-11.1 15.8-16.4 1.65-1.64 3.29-3.29 4.93-4.94 5.54-5.55 11.2-10.9 17.2-16 1.19-1.04 2.38-2.09 3.57-3.14 8.26-7.24 16.7-14.2 25.4-20.9 0.706-0.537 1.41-1.08 2.14-1.63 67.2-50.9 148-83.8 262-107 0.759-0.136 1.52-0.272 2.3-0.411 45.1-8.02 90.9-12.7 137-11.6zm-207 397c-0.812 0.669-0.812 0.669-1.64 1.35-7.75 6.4-14.9 12.9-21.4 20.6-0.69 0.815-1.38 1.63-2.09 2.47-2.34 2.81-4.63 5.66-6.91 8.53-0.453 0.564-0.906 1.13-1.37 1.71-15.2 19-28.7 39.6-40.4 61-1.19 2.18-2.4 4.35-3.61 6.52-41.5 75.3-57.5 169-34.3 253 1.18 4.06 2.41 8.1 3.69 12.1 0.281 0.898 0.563 1.8 0.853 2.72 8.41 26.2 21.8 50.9 36.1 74.3 0.767 1.27 0.767 1.27 1.55 2.56 7.48 12.3 15.7 24 24.5 35.4 0.749 0.981 0.749 0.981 1.51 1.98 13.2 17.2 27.6 33.2 43 48.7 1.04 1.05 2.09 2.1 3.13 3.16 6.8 6.88 13.8 13.2 21.4 19.2 1.03 0.863 2.05 1.73 3.07 2.61 54.6 46.8 119 70.6 191 70.6 0.751 1e-3 1.5 1e-3 2.28 2e-3 55.7-0.078 114-12.9 164-37.3 0.688-0.327 1.38-0.654 2.08-0.99 33.8-16.1 64.1-38 90.9-64 0.617-0.595 1.23-1.19 1.87-1.8 6.75-6.54 13.2-13.1 19-20.5 2.2-2.77 4.5-5.44 6.81-8.11 52-62.7 73.9-144 66.7-224-4.09-44-14.9-87.9-34.4-128-0.336-0.694-0.672-1.39-1.02-2.1-1.94-4.01-3.94-7.98-5.98-11.9-1.02-1.98-2.02-3.97-3.01-5.95-11.9-23.3-27.1-45.1-44-65-0.908-1.08-1.82-2.16-2.72-3.25-11.7-13.9-24-27.9-37.9-39.7-1.86-1.6-3.69-3.21-5.52-4.84-77.3-68.8-179-101-438-11.2z" fill="#fff"/><path transform="translate(241,3)" d="m0 0c1.05 0.193 2.11 0.387 3.19 0.586 61.8 11.8 61.8 11.8 71.6 26.1 0.4 0.748 0.799 1.5 1.21 2.27 0.544 0.995 1.09 1.99 1.65 3.02 37.2 73.8 29 185 36.5 395 0.02 0.869 0.039 1.74 0.059 2.64 1.38 61.4 1.98 123 1.98 184 0 6 3e-3 12 7e-3 18 0.016 24.1 0.018 48.3 0.014 72.4-1e-3 5.81-1e-3 11.6-1e-3 17.4-0.014 192-0.014 192-1.91 338-0.222 14.8-0.437 29.6-0.648 44.4-1.04 72.6-2.14 145-4.71 306-0.034 2.13-0.069 4.26-0.103 6.38-0.479 29.5-0.96 59.1-1.45 88.6-1.91 114-1.91 114-2.5 229 5e-3 5.76 2e-3 11.5-3e-3 17.3-5e-3 6.44-5e-3 12.9-2e-3 19.3 1e-3 2.66 0 5.31-2e-3 7.97-9e-3 12.9 0.083 25.7 0.578 38.6 0.038 1.01 0.076 2.02 0.116 3.06 0.323 7.48 1.08 14.8 2.44 22.2 12.9 0.219 22.8-10.2 31.6-18.7 1.14-1.1 2.27-2.21 3.41-3.32 0.633-0.618 1.27-1.24 1.92-1.87 9.48-9.27 9.48-9.27 18.4-19.1 1.84-2.14 3.75-4.2 5.66-6.27 4.84-5.21 9.42-10.5 13.9-16.1 2.16-2.62 4.39-5.14 6.68-7.65 4.71-5.17 9.11-10.6 13.5-16 1.39-1.71 2.79-3.42 4.19-5.12 0.738-0.904 1.48-1.81 2.24-2.74 1.95-2.38 3.91-4.75 5.87-7.12 5.95-7.2 11.9-14.4 17.6-21.8 3.48-4.46 7.04-8.86 10.6-13.2 5.46-6.7 10.8-13.5 16.2-20.3 2.28-2.91 4.56-5.81 6.84-8.72 0.917-1.17 1.83-2.33 2.75-3.5 5.5-7 5.5-7 6.87-8.75 0.919-1.17 1.84-2.34 2.76-3.51 2.25-2.87 4.51-5.74 6.76-8.6 6.89-8.75 13.7-17.5 20.6-26.3 2.93-3.77 5.86-7.54 8.8-11.3 0.574-0.739 1.15-1.48 1.74-2.24 2.97-3.81 5.93-7.63 8.9-11.4 5.93-7.62 11.9-15.3 17.7-22.9 3.8-4.94 7.63-9.84 11.5-14.8 3.4-4.37 6.8-8.76 10.2-13.2 5.7-7.42 11.4-14.8 17.2-22.2 2.94-3.78 5.88-7.55 8.81-11.3 1.17-1.5 2.33-3 3.5-4.5 0.577-0.743 1.16-1.48 1.75-2.25 1.75-2.25 3.5-4.5 5.25-6.75 0.578-0.743 1.16-1.49 1.75-2.25 1.16-1.5 2.33-2.99 3.49-4.49 2.96-3.8 5.91-7.6 8.86-11.4 5.72-7.36 11.4-14.7 17.2-22 3.12-3.97 6.23-7.96 9.32-11.9 5.46-7.03 11-14 16.5-21 3.32-4.14 6.62-8.29 9.89-12.5 0.452-0.576 0.904-1.15 1.37-1.74 2.25-2.87 4.5-5.74 6.74-8.62 5.42-6.93 10.9-13.8 16.5-20.6 3.47-4.26 6.89-8.56 10.3-12.9 4.68-6 9.51-11.9 14.4-17.7 3.68-4.45 7.28-8.95 10.8-13.5 4.14-5.33 8.46-10.5 12.9-15.6 3.52-4.07 6.88-8.25 10.2-12.5 3.85-4.98 7.88-9.7 12.1-14.3 3.04-3.38 5.87-6.91 8.73-10.4 4.2-5.13 8.55-10.1 12.9-15.2 1.56-1.82 3.12-3.64 4.68-5.47 5.21-6.11 10.5-12.2 15.9-18.1 1.86-2.06 3.69-4.14 5.51-6.23 3.36-3.85 6.77-7.65 10.2-11.4 1.49-1.65 2.98-3.3 4.46-4.96 6.21-6.93 12.5-13.8 18.8-20.6 0.586-0.633 1.17-1.27 1.78-1.92 8.09-8.72 16.3-17.3 24.7-25.7 0.824-0.829 1.65-1.66 2.5-2.51 4.28-4.26 8.63-8.37 13.2-12.3 2.54-2.2 4.97-4.5 7.42-6.8 24.9-23.1 49.6-39.8 84.5-38.9 30.5 1.44 56.4 17.5 77.9 38.1 0.556 0.531 1.11 1.06 1.68 1.61 4.34 4.22 8.11 8.69 11.8 13.5 0.565 0.747 1.13 1.49 1.71 2.26 4.72 6.32 8.98 12.7 12.8 19.6 0.388 0.682 0.775 1.36 1.17 2.07 21.3 37.8 35.9 88.8 23.8 132-2.86 9.73-6.71 18.1-12.8 26.3-1.4 1.91-2.78 3.83-4.15 5.76-3.33 4.66-6.71 9.3-10.1 13.9-0.56 0.768-1.12 1.54-1.7 2.33-7.33 10-14.8 20-22.3 29.8-4.38 5.74-8.7 11.5-13 17.3-6.36 8.68-12.9 17.2-19.4 25.8-2.72 3.56-5.42 7.13-8.1 10.7-3.34 4.47-6.72 8.91-10.1 13.3-6.45 8.44-12.8 16.9-19.1 25.5-5.02 6.84-10.2 13.6-15.3 20.3-4.96 6.5-9.83 13.1-14.7 19.7-4.44 6.05-8.98 12-13.5 18-4.76 6.22-9.45 12.5-14 18.9-3.58 5.07-7.3 10-11 15-10.1 13.4-20 26.9-29.9 40.5-3.93 5.45-7.9 10.9-11.9 16.3-10.3 14-20.5 28.2-30.5 42.4-1.95 2.77-3.91 5.54-5.87 8.31-1.51 2.14-3.02 4.28-4.53 6.42-2 2.84-4.01 5.68-6.03 8.51-45.6 55.3-45.6 55.3-69.6 118 3.79 15.4 17.1 29 27.6 40.3 1.17 1.33 2.34 2.66 3.5 4 5.93 6.8 12 13.5 18.1 20.1 3.6 3.92 7.16 7.87 10.6 11.9 2.01 2.29 4.06 4.54 6.11 6.79 3.07 3.4 6.01 6.86 8.88 10.4 4.66 5.76 9.68 11.1 14.7 16.5 2.85 3.04 5.62 6.15 8.34 9.31 2.74 3.15 5.55 6.25 8.35 9.35 2.23 2.48 4.46 4.96 6.69 7.44 4.71 5.23 9.46 10.4 14.2 15.6 1.85 2.01 3.69 4.02 5.54 6.04 0.917 1 1.83 2 2.75 3 2.26 2.46 4.51 4.92 6.76 7.39 6.8 7.44 13.7 14.8 20.6 22.2 2.34 2.5 4.67 5 7 7.5 7.26 7.79 14.5 15.6 21.8 23.3 2.06 2.2 4.13 4.4 6.19 6.61 1.4 1.5 2.81 3 4.22 4.49 0.637 0.682 1.28 1.36 1.93 2.07 3.86 4.11 7.8 8.13 11.8 12.1 1.79 1.82 3.46 3.71 5.12 5.65 2.91 3.39 6.01 6.55 9.19 9.69 3.72 3.67 7.24 7.43 10.6 11.4 2.36 2.63 4.86 5.11 7.38 7.59 3.72 3.67 7.24 7.43 10.6 11.4 2.36 2.63 4.86 5.11 7.38 7.59 3.72 3.67 7.24 7.43 10.6 11.4 2.81 3.14 5.83 6.07 8.82 9.02 3.27 3.24 6.32 6.61 9.31 10.1 2.71 3.05 5.65 5.88 8.55 8.74 2.59 2.63 4.98 5.39 7.38 8.19 2.67 2.99 5.53 5.77 8.41 8.56 1.98 2.03 3.84 4.09 5.7 6.24 3.71 4.27 7.56 8.38 11.5 12.5 6.48 6.86 12.9 13.8 19.2 20.8 0.957 1.04 1.91 2.08 2.87 3.12 8.18 8.89 16.1 18 24 27.2 2.05 2.4 4.12 4.78 6.2 7.16 20.8 23.8 38.2 48.4 36 81.5-2.92 28.6-17.5 51.6-37 72-0.74 0.793-1.48 1.59-2.24 2.4-28.5 29.7-73.8 48.9-115 49.9-14.5 0.279-29 0.381-43.1-3.28-0.796-0.204-1.59-0.408-2.41-0.618-29.2-7.7-56.9-22.9-76.8-46.1-4.18-4.84-8.71-9.3-13.3-13.8-1.64-1.61-3.27-3.23-4.91-4.84-0.715-0.703-1.43-1.41-2.17-2.13-1.97-2.05-3.84-4.14-5.7-6.29-3.82-4.4-7.9-8.51-12-12.6-0.773-0.769-1.55-1.54-2.34-2.33-2.45-2.43-4.9-4.86-7.35-7.3-3.23-3.2-6.46-6.41-9.69-9.62-0.729-0.721-1.46-1.44-2.21-2.18-0.697-0.694-1.4-1.39-2.11-2.1-0.603-0.598-1.2-1.2-1.83-1.81-1.89-1.99-3.68-4.01-5.47-6.08-3.42-3.93-7-7.64-10.7-11.3-0.661-0.663-1.32-1.33-2-2.01-2.16-2.16-4.33-4.33-6.49-6.49-1.52-1.52-3.04-3.04-4.55-4.56-3.17-3.17-6.34-6.34-9.52-9.51-4.05-4.05-8.1-8.1-12.1-12.2-3.13-3.13-6.26-6.27-9.4-9.4-1.49-1.49-2.98-2.98-4.48-4.48-2.09-2.09-4.18-4.18-6.28-6.27-0.908-0.911-0.908-0.911-1.84-1.84-3.69-3.68-7.51-7.16-11.5-10.5-3.03-2.66-5.85-5.52-8.68-8.39-0.613-0.617-1.23-1.24-1.86-1.87-2.58-2.6-5.16-5.21-7.74-7.82-9.16-9.3-9.16-9.3-18.8-18-3.06-2.66-5.87-5.59-8.71-8.49-4.25-4.3-8.53-8.46-13.1-12.4-2.94-2.6-5.66-5.42-8.39-8.23-2.03-1.98-4.09-3.84-6.23-5.7-4.32-3.75-8.47-7.65-12.6-11.6-5.4-5.11-10.8-10.2-16.4-15.1-1.57-1.4-3.13-2.81-4.69-4.23-4.24-3.86-8.54-7.61-13-11.2-3.8-3.08-7.46-6.25-11.1-9.56-5.33-4.89-10.9-9.47-16.5-14-1.13-0.924-2.26-1.85-3.4-2.77-27.1-24.1-27.1-24.1-59.7-36.4-11.2 4.39-20.5 14-28.1 23.1-1.93 2.28-3.95 4.47-5.98 6.66-4.01 4.44-7.72 9.06-11.4 13.8-2.95 3.8-5.95 7.54-9 11.3-6.11 7.43-12 15-17.7 22.8-4.25 5.71-8.58 11.4-13 17-4.41 5.63-8.68 11.3-12.8 17.2-3.62 5.12-7.37 10.1-11.1 15.1-4.97 6.6-9.92 13.2-14.8 19.9-0.575 0.781-1.15 1.56-1.74 2.37-2.88 3.91-5.75 7.83-8.62 11.7-6.77 9.23-13.6 18.4-20.6 27.5-4.51 5.91-8.96 11.9-13.4 17.9-5.44 7.42-11 14.7-16.6 22-1.67 2.16-3.33 4.33-5 6.5l-2.51 3.26c-1.64 2.14-3.28 4.28-4.92 6.42-4.93 6.45-9.95 12.8-15 19.2-2.92 3.64-5.82 7.3-8.68 11-4.68 6.02-9.52 11.9-14.5 17.6-2.98 3.45-5.91 6.93-8.78 10.5-8.96 11-18.4 21.6-28.1 32-1.46 1.58-2.92 3.16-4.36 4.76-10.1 11.1-20.5 22.2-32.1 31.8-0.922 0.788-1.84 1.58-2.79 2.39-29.4 25-62.1 31.7-100 29-47.6-3.97-100-20.7-132-57.9-49.9-61.4-36.8-204-46-457-0.02-1.01-0.041-2.03-0.062-3.07-2.14-107-3.02-214-1.96-586 0.023-2.45 0.047-4.9 0.07-7.36 0.886-92.2 2.08-184 23.6-1116 0.117-3.8 0.234-7.6 0.35-11.4 0.475-15.5 0.954-30.9 1.44-46.4 0.101-3.23 0.201-6.46 0.301-9.7 1.16-37.4 1.16-37.4 1.74-51.7 0.049-1.31 0.049-1.31 0.098-2.64 0.28-6.45 1.23-12.5 3.01-18.8 0.267-0.99 0.533-1.98 0.808-3 12.2-43.9 36.6-83.6 76.8-107 39.5-22 87.8-26.2 132-18.1z" fill="#fff"/><path transform="translate(5338 1160)" d="m0 0c80.1-1.81 163 12.2 314 68.1 0.986 0.465 1.97 0.93 2.99 1.41 14.1 6.71 27.6 14.5 41 22.6 0.774 0.465 1.55 0.929 2.34 1.41 20.9 12.6 40.6 27.2 59 43.2 1.72 1.48 3.45 2.94 5.18 4.39 6.35 5.35 12.4 10.8 18.2 16.8 2.05 2.06 4.16 3.97 6.36 5.86 6.23 5.36 11.8 11.2 17.2 17.4 1.68 1.89 3.41 3.66 5.22 5.43 3.71 3.66 7.11 7.54 10.5 11.5 0.907 1.04 1.82 2.09 2.72 3.13 6.04 6.96 11.9 14 17.5 21.3 1.86 2.4 3.76 4.77 5.67 7.13 7.18 8.84 13.9 17.9 20.5 27.2 1.48 2.08 2.97 4.15 4.47 6.22 37 51.4 67.7 107 96.1 164 0.935 1.86 1.88 3.71 2.82 5.56 8.99 17.9 15 36.2 20.2 55.4 0.196 0.723 0.393 1.44 0.596 2.19 8.13 30 14.2 60.3 18.2 91.1 0.15 1.15 0.15 1.15 0.302 2.32 2.77 21.5 4.06 43.1 4.61 64.8 0.53 20.4 1.71 40.5 3.9 60.7 1.6 14.8 2.92 29.4 2.55 44.3-0.2 8.74-0.023 17.4 0.339 26.1 0.535 14.3 0.457 28.5 0.151 42.7-0.15 7.06-0.269 14.1-0.389 21.2-0.012 0.728-0.025 1.46-0.038 2.2-0.274 16.1-0.367 32.1-0.409 48.2-2e-3 0.685-3e-3 1.37-5e-3 2.08-0.021 7.8-0.038 15.6-0.051 23.4-0.014 8.38-0.036 16.8-0.058 25.2-0.038 13.7-0.073 27.4-0.105 41.2-2e-3 0.809-4e-3 1.62-6e-3 2.45-0.027 11.5-0.05 22.9-0.073 34.4-2e-3 0.809-3e-3 1.62-5e-3 2.45-2e-3 1.21-2e-3 1.21-5e-3 2.45-0.027 13.7-0.062 27.4-0.102 41.1-0.022 7.59-0.04 15.2-0.05 22.8-0.042 31.9-0.366 63.8-1.33 95.6-0.021 0.718-0.043 1.44-0.065 2.18-0.634 20.9-1.4 41.8-2.67 62.6-0.212 3.48-0.407 6.97-0.598 10.5-0.729 13.2-1.6 26.3-3.21 39.4-0.118 0.962-0.237 1.92-0.358 2.92-0.333 2.51-0.731 5-1.14 7.5-0.155 1.31-0.309 2.62-0.469 3.96-1.53 3.04-1.53 3.04-3.51 4.07-6.06 1.96-12.4 2.77-18.7 3.52-1.5 0.185-1.5 0.185-3.02 0.375-10.8 1.3-21.6 2.24-32.4 3.06-1.62 0.124-1.62 0.124-3.28 0.251-175 13.2-175 13.2-254 1.31-0.729-0.11-1.46-0.22-2.21-0.334-11.9-2.02-11.9-2.02-15.6-5.99-15.4-25.7-6.5-82.8-6.51-113-1e-3 -3.9-6e-3 -7.8-0.011-11.7-0.014-12.6-0.014-25.2-0.011-37.9 1e-3 -3.29 2e-3 -6.58 2e-3 -9.88 0.01-72.6 0.485-145 2.08-218 0.111-5.03 0.22-10.1 0.33-15.1 0.863-39.6 1.75-79.2 2.68-119 0.144-6.13 0.286-12.3 0.428-18.4 0.019-0.839 0.038-1.68 0.058-2.54 0.077-3.3 0.153-6.6 0.229-9.9 0.214-9.27 0.435-18.5 0.667-27.8 0.113-4.55 0.22-9.1 0.325-13.7 0.048-1.98 0.097-3.96 0.15-5.94 0.482-18-0.508-35.7-2.77-53.6-0.086-0.682-0.172-1.36-0.261-2.07-6.11-47.8-19.3-94-39.7-138-0.995-2.14-1.96-4.29-2.93-6.45-18.5-41.1-45.6-78.8-76.1-112-0.535-0.589-1.07-1.18-1.62-1.78-52.4-55.2-142-83.8-216-86.3-66-1.65-129 16.4-180 58.1-0.95 0.745-1.9 1.49-2.88 2.26-7.74 6.28-14.8 13.2-21.9 20.2-0.49 0.485-0.98 0.97-1.48 1.47-6.72 6.66-12.9 13.6-18.8 21-0.87 1.1-0.87 1.1-1.76 2.22-7.57 9.61-14.7 19.4-21.2 29.8-0.678 1.07-0.678 1.07-1.37 2.16-30.6 48.7-51.5 103-62.9 159-0.727 3.38-0.727 3.38-1.75 6.79-1.71 6.8-1.68 13.9-2.02 20.9-0.084 1.65-0.167 3.31-0.25 4.96-0.97 19.7-1.55 39.4-2.09 59.1-0.03 1.09-0.061 2.18-0.092 3.31-2.59 93.6-4.26 187-8.75 449-0.092 5.56-0.185 11.1-0.277 16.7-0.039 2.33-0.078 4.67-0.117 7-0.025 1.54-0.051 3.08-0.077 4.61-0.134 8.1-0.269 16.2-0.401 24.3l-0.069 4.19c-0.034 2.06-0.067 4.12-0.101 6.18-0.117 7.16-0.237 14.3-0.369 21.5-0.045 2.46-0.09 4.91-0.135 7.37-0.021 1.19-0.043 2.37-0.065 3.6-0.124 7.03-0.208 14.1-0.257 21.1-0.033 4.35-0.084 8.71-0.137 13.1-0.02 2-0.031 4.01-0.033 6.01-3e-3 2.71-0.035 5.42-0.074 8.13 7e-3 0.788 0.014 1.58 0.022 2.39-0.086 3.81-0.346 5.52-3.01 8.33-3.36 1.95-6.7 2.88-10.5 3.68-1.12 0.248-1.12 0.248-2.26 0.502-7.78 1.66-15.6 2.67-23.5 3.5-0.743 0.082-1.49 0.164-2.25 0.248-15.2 1.68-30.5 2.82-45.8 3.52-1.67 0.076-3.34 0.155-5.01 0.236-21.6 1.02-43.3 1.07-64.9 1.06h-2.78c-27.3-5e-3 -54.5-0.123-81.7-2.19-1.48-0.108-2.96-0.216-4.44-0.324-64.7-4.81-64.7-4.81-82.9-17.3-5.6-8.18-4.93-22.5-6-32.2-0.108-0.969-0.215-1.94-0.326-2.94-3.57-32.4-5.94-64.9-7.49-97.5-0.037-0.773-0.074-1.55-0.112-2.34-1.28-27.5-1.86-55-1.87-82.5-1e-3 -2.36-3e-3 -4.73-6e-3 -7.09-9e-3 -8.39-0.013-16.8-0.012-25.2 0-6.75-7e-3 -13.5-0.021-20.3-0.096-47.2 0.565-94.3 2.21-141 0.039-1.13 0.078-2.26 0.118-3.42 0.443-12.8 0.947-25.6 1.51-38.3 0.123-2.79 0.244-5.58 0.365-8.37 1.87-43 4.32-85.9 6.88-129 0.797-13.4 1.55-26.8 2.28-40.2 0.311-5.71 0.631-11.4 0.952-17.1 0.246-4.39 0.488-8.79 0.716-13.2 1.5-28.7 4.7-57 10.4-85.2l0.882-4.42c6.48-32.2 14.1-64.2 22.9-95.9 0.183-0.663 0.366-1.33 0.554-2.01 7.08-25.5 17.2-50 28.4-74 0.437-0.94 0.875-1.88 1.33-2.85 16.5-35.3 35.4-69.5 59.7-100 0.727-0.921 1.45-1.84 2.2-2.79 5.35-6.66 11-12.9 16.9-19.2 1.47-1.58 2.93-3.17 4.39-4.77 7.56-8.28 15.4-16.3 23.3-24.2 1.29-1.29 2.57-2.58 3.86-3.86 2.67-2.67 5.34-5.34 8.02-8.01 3.41-3.4 6.81-6.81 10.2-10.2 2.64-2.65 5.29-5.3 7.94-7.94 1.26-1.26 2.51-2.51 3.76-3.77 11.8-11.8 11.8-11.8 17.9-17 1.94-1.66 3.73-3.45 5.5-5.28 3.13-3.17 6.37-6.12 9.75-9.03 2.21-1.94 4.38-3.92 6.53-5.92 5.11-4.74 10.3-9.24 15.8-13.6 3.49-2.87 6.88-5.84 10.3-8.81 6.44-5.62 13-11 19.8-16.2 1.96-1.51 3.92-3.03 5.88-4.55 25.2-19.5 51.5-36.9 79-52.9 1.01-0.597 2.02-1.19 3.06-1.81 28.8-17 60.9-26.4 92.9-35.2 0.804-0.222 1.61-0.444 2.44-0.673 61.3-16.9 123-26.8 186-28.4z" fill="#fff"/><path transform="translate(3724 1160)" d="m0 0c85.5-2 172 15.2 260 46.1 1.01 0.359 2.03 0.718 3.07 1.09 14.4 5.17 27.7 12.3 40.9 19.9 1.25 0.711 1.25 0.711 2.53 1.44 23.1 13.2 45.3 28.4 66.5 44.6 1.16 0.874 2.32 1.75 3.48 2.62 12.6 9.58 24.9 19.7 36.9 30 1.66 1.42 3.33 2.83 5.01 4.24 6.98 5.91 13.8 12 20.4 18.3 3.16 2.98 6.34 5.92 9.64 8.75 3.28 2.82 6.31 5.83 9.31 8.94 1.81 1.76 3.63 3.37 5.55 4.99 6.34 5.53 12.2 11.6 18.1 17.5 1.3 1.29 2.59 2.59 3.88 3.88 2.7 2.7 5.4 5.4 8.1 8.11 3.44 3.45 6.89 6.89 10.3 10.3 2.67 2.67 5.34 5.34 8.01 8.01 1.27 1.27 2.54 2.54 3.81 3.81 12 11.9 12 11.9 17.1 18 1.82 2.14 3.74 4.16 5.67 6.2 6.71 7.11 12.8 14.6 18.7 22.4 0.76 1.01 0.76 1.01 1.54 2.03 8.91 11.9 16.9 24.2 24.5 37 0.74 1.24 0.74 1.24 1.5 2.51 14.9 25.3 28 51.5 39.5 78.5 0.511 1.19 1.02 2.37 1.55 3.59 19.4 45.7 29.9 95.4 39.8 144 0.302 1.46 0.302 1.46 0.61 2.96 6.85 33.4 10.1 66.5 11.9 100 0.299 5.55 0.615 11.1 0.929 16.6 0.515 9.1 1.02 18.2 1.52 27.3 0.612 11.2 1.26 22.3 1.92 33.5 2.23 37.8 4.22 75.5 5.87 113 0.12 2.73 0.242 5.47 0.364 8.2 2.7 60.7 3.92 121 3.83 182-7e-3 5.59-5e-3 11.2 4e-3 16.8 0.104 71.3-1.82 142-9.26 213-0.086 0.824-0.172 1.65-0.26 2.5-0.497 4.74-1.01 9.48-1.56 14.2-0.163 1.43-0.322 2.85-0.478 4.28-0.214 1.94-0.446 3.88-0.68 5.82-0.126 1.08-0.252 2.16-0.383 3.28-1.06 4.8-2.96 7.34-6.71 10.5-22.8 13.2-57.9 8.8-83.1 8.75-1.87-3e-3 -3.74-5e-3 -5.61-8e-3 -32.2-0.057-64.1-0.996-96.2-3.3-0.838-0.06-1.68-0.12-2.54-0.182-27.2-1.95-54.4-3.98-81.6-6.2-5.17-0.417-10.3-0.802-15.5-1.16-3.19-0.222-6.37-0.461-9.55-0.704-1.47-0.108-2.94-0.208-4.4-0.299-2-0.125-4-0.28-6-0.437-1.12-0.078-2.23-0.155-3.38-0.234-3.85-1.02-5.44-2.78-7.98-5.79-38.6-68.2-23-195-25.1-280-0.058-2.55-0.118-5.1-0.178-7.65-1.38-59.5-1.8-119-2.04-178-5e-3 -1.19-0.01-2.39-0.015-3.62-0.084-20.9-0.158-41.8-0.23-62.7-0.047-13.6-0.097-27.3-0.152-40.9-0.023-5.8-0.044-11.6-0.062-17.4-0.062-20.7-0.139-41.5-0.611-62.2-0.037-1.65-0.073-3.3-0.106-4.96-0.249-12.1-1.44-23.6-4.54-35.3-0.409-1.66-0.815-3.33-1.22-5-3.62-14.7-7.92-29.1-12.8-43.4-0.581-1.73-0.581-1.73-1.18-3.49-12.1-35.7-27.5-70.7-47.8-103-0.669-1.06-1.34-2.12-2.03-3.22-9.56-14.7-20.2-28.7-32-41.8-0.476-0.532-0.951-1.06-1.44-1.61-8.39-9.36-16.9-18.3-26.8-26.2-1.79-1.43-3.56-2.89-5.3-4.38-51.6-43.9-121-60-187-55.4-76 6.33-164 36.9-215 96.8-1.91 2.33-3.81 4.68-5.69 7.03-1.44 1.79-2.91 3.55-4.38 5.32-18.1 21.8-33.3 45.6-47 70.3-0.456 0.82-0.912 1.64-1.38 2.48-31.4 56.7-48.9 121-53.9 186-0.077 0.943-0.153 1.89-0.232 2.86-0.459 6.85-0.502 13.7-0.497 20.6 0 1.08 1e-3 2.16 1e-3 3.27 0.027 15.6 0.23 31.3 0.411 46.9 0.054 4.67 0.106 9.33 0.158 14 0.066 5.94 0.133 11.9 0.2 17.8 0.166 14.7 0.327 29.4 0.485 44.1 0.012 1.06 0.023 2.11 0.035 3.2 0.126 11.7 0.25 23.4 0.375 35 0.017 1.55 0.017 1.55 0.034 3.13 0.054 5.09 0.108 10.2 0.163 15.3 0.107 10.1 0.216 20.1 0.327 30.2 0.833 75.1 0.954 150 0.975 225 1e-3 6.44 5e-3 12.9 8e-3 19.3 7e-3 13.6 9e-3 27.1 3e-3 40.7-1e-3 4.56 0 9.12 2e-3 13.7 0.011 21.8-0.06 43.6-0.582 65.4-0.019 0.838-0.039 1.68-0.059 2.54-0.125 5.25-0.289 10.5-0.495 15.7-0.024 0.68-0.049 1.36-0.074 2.06-0.075 1.92-0.174 3.85-0.273 5.77-0.053 1.08-0.106 2.15-0.161 3.26-0.648 3.83-2.01 6.76-5.11 9.17-22.1 10.5-50.2 8.96-74.1 8.93-1.01-1e-3 -2.02-2e-3 -3.07-2e-3 -53.4-0.085-107-4.4-160-9.25-1.03-0.094-1.03-0.094-2.07-0.189-8.45-0.771-16.9-1.57-25.4-2.38-3.92-0.373-7.84-0.724-11.8-1.07-2.57-0.241-5.14-0.482-7.7-0.723-1.15-0.099-2.31-0.197-3.5-0.298-13.3-1.29-23.9-4.09-32.9-14.3-5.45-6.96-7.31-14.1-7.26-22.9-4e-3 -0.765-8e-3 -1.53-0.012-2.32-7e-3 -1.66-9e-3 -3.32-8e-3 -4.98 2e-3 -2.68-9e-3 -5.35-0.024-8.03-0.02-3.85-0.036-7.7-0.05-11.5-0.115-29.3-0.51-58.4-2.53-87.7-0.362-5.31-0.722-10.6-1.08-15.9-0.045-0.664-0.089-1.33-0.136-2.01-5.99-89.8-5.76-180-7.21-270-0.019-1.2-0.039-2.4-0.059-3.63-0.096-5.94-0.191-11.9-0.284-17.8-0.192-12.1-0.411-24.2-0.67-36.2-0.077-3.7-0.153-7.41-0.229-11.1-0.05-2.32-0.102-4.65-0.157-6.97-0.31-13.1-0.267-26.1 0.474-39.2 0.292-5.33 0.222-10.6 0.113-16-0.428-21.3 1.89-42.4 4.45-63.5 0.829-7.26 0.904-14.5 1.05-21.8 1.38-65.8 9.9-130 28.6-193 0.288-1 0.575-2.01 0.871-3.04 5.28-18.3 13.5-34.9 22-51.8 1.1-2.16 2.19-4.32 3.28-6.48 8.38-16.6 17.1-33 26.4-49.1 1.88-3.31 3.69-6.65 5.51-9.99 26.2-48.3 57.6-94.4 92.5-137 1.3-1.59 2.59-3.19 3.87-4.79 4.72-5.87 9.67-11.4 14.8-17 2.08-2.25 4.1-4.54 6.11-6.85 3.76-4.32 7.66-8.5 11.6-12.7 0.664-0.707 1.33-1.42 2.01-2.14 6.31-6.7 12.7-13.3 19.7-19.2 2.51-2.21 4.94-4.48 7.38-6.77 6.46-6.06 13.1-11.8 20-17.3 1.05-0.846 2.11-1.69 3.16-2.54 69.5-55.6 153-90 392-128z" fill="#fff"/></svg>
