<?xml version="1.0" encoding="UTF-8"?>
<svg id="Chair" xmlns="http://www.w3.org/2000/svg" width="1000" height="1000" viewBox="0 0 1000 1000">
  <defs>
    <style>
      .cls-1 {
        fill: #e29764;
      }

      .cls-1, .cls-2, .cls-3, .cls-4, .cls-5, .cls-6, .cls-7, .cls-8, .cls-9, .cls-10, .cls-11, .cls-12, .cls-13, .cls-14, .cls-15, .cls-16, .cls-17, .cls-18, .cls-19, .cls-20, .cls-21, .cls-22, .cls-23, .cls-24 {
        stroke-width: 0px;
      }

      .cls-2 {
        fill: #262626;
      }

      .cls-3 {
        fill: #e5955e;
      }

      .cls-4 {
        fill: #e58876;
      }

      .cls-5 {
        fill: #f2ac7c;
      }

      .cls-6 {
        opacity: .8;
      }

      .cls-6, .cls-23 {
        fill: #f7376a;
      }

      .cls-7 {
        fill: #f73475;
        opacity: .2;
      }

      .cls-8 {
        fill: #e5856e;
      }

      .cls-9 {
        fill: #ccc;
      }

      .cls-10 {
        fill: #fff;
      }

      .cls-11 {
        fill: #f79b7f;
      }

      .cls-12 {
        fill: #e89789;
      }

      .cls-13 {
        fill: #f7f3f0;
      }

      .cls-25 {
        fill: none;
        stroke: #9e9e9e;
        stroke-miterlimit: 10;
        stroke-width: .75px;
      }

      .cls-25, .cls-23 {
        opacity: .5;
      }

      .cls-14 {
        fill: #e2e2e2;
      }

      .cls-15 {
        fill: #ed7293;
      }

      .cls-16 {
        fill: #f9f9f9;
      }

      .cls-17 {
        fill: #3a3a3a;
      }

      .cls-18 {
        fill: #d1783d;
      }

      .cls-19 {
        fill: #ffcecb;
      }

      .cls-20 {
        fill: #ffbf94;
      }

      .cls-21 {
        fill: #ef9684;
      }

      .cls-22 {
        opacity: .1;
      }

      .cls-24 {
        fill: #e89760;
      }
    </style>
  </defs>
  <polygon class="cls-15" points="1555.61 -4.45 1653.05 1086.18 -444.18 668.03 -339.89 -92.32 1555.61 -4.45"/>
  <path class="cls-19" d="m-198.94,558.36s173.03,1.73,261.62,0,229.46,2.03,347.48,0c118.33-7.99,377.53,0,377.53,0,0,0,401.95,3.55,544.7,0,148.85-6.58,320.19,0,320.19,0,0,0,19.72,529.46,0,529.46H-651.42v-219.08l452.48-310.38Z"/>
  <polygon class="cls-6" points="815.34 678.56 905.88 652.71 793.22 679.38 785.34 681.81 1137.05 732.57 815.34 678.56"/>
  <path class="cls-23" d="m402.61,749.52l209.11-24.29-257.97-118.01-289.33,30.13s-38.29-8.88-60.4-8.8c-9.91.04-21.29,1.2-48.76,4.71-2.61.33-97.8-24.63-116.4-28.66,3.56-1.94,9.53-5.96,12.85-8.08,3.5-2.24,71.61,27.82,94.04,24.03,2.93-.5-86.32-29.86-84.29-31.78.8-.76,234.7,37.52,236.05,36.32.14-.12,4.83-2.48-.91-3.59-42.16-8.19-229.28-37.96-228.28-38.87,1.66-1.52,3.15-2.95,3.9-3.93,27.97-36.15-68.66-73.18-70.87-72.58-11.67,3.19-36.61,108.09-33.17,117.79,1.92,5.41,26.48.49,52.05-10.35,37.73,9.38,100.34,24.13,99.11,24.29-26.1,3.46-47.81,6.57-47.81,6.57l21.89,10.74-154.36,16.07-3.96-99.53-28.15,162.77,245.51,67.33,194.68-22.61,269.84,104.57,27.6-2.82-105.82-43.11,213.55-30.7,115.25,34.27,24.15-2.86-289.12-89.02Zm-84.12,80.04l-134.23-54.68,17.64-2.05,84.17,35.86h17.93s-82.22-35.96-74.77-34.5c8.28,1.63,17.66,3.27,20.35,2.98,1.45-.16,5.78-.68,11.24-1.34,1.63-.2,3.37-.41,5.16-.63,4.24-.52,8.78-1.07,13.01-1.59,3.53-.43,6.84-.84,9.57-1.17,4.29-.53,7.13-.88,7.13-.88l112.46,46.3,41.46-5.41-137.25-44.35s24.8-3.38,26.44-4.32c1.64-.94-.32-6.82-.32-6.82l32.48-3.77,162.51,48.32-214.96,28.05Z"/>
  <polygon class="cls-18" points="283.04 804.02 518.24 383.48 532.75 397.69 286.07 808.69 283.04 804.02"/>
  <polygon class="cls-24" points="286.07 808.69 523.44 384.27 537.95 398.48 303.99 808.69 286.07 808.69"/>
  <path class="cls-3" d="m585.68,279.41c-1.35-1.02-13.65.17-16.67,3.76l68.56,388.24-81.14,9.44-32.53-464.52,5.15-9.86-7.58-13.48s-3.61-57.9-3.88-64.18c-.27-6.29-20-1.14-20-1.14l7.99,88.4,31.24,466.68-89.37,9.49c8.36-176.93,19.46-414.3,19.09-418.18-.59-6.15-16.88-.96-16.88-.96l-32.65,610.66c14.2,3.94,21.5-3.17,21.5-3.17,0,0,3.44-72.13,7.9-166.63l195.19-19.73,25.99,147.17s17.73,2.42,18.05-3.21c.32-5.63-98.6-557.76-99.95-558.78Z"/>
  <path class="cls-5" d="m591.78,279.76c-1.35-1.02-13.65.17-16.67,3.76l69.11,391.37-81.52,8.81-32.71-467.02-2.16-11.57,26.58-5.23-26.85-6.54s-3.61-57.9-3.88-64.18c-.27-6.29-20-1.14-20-1.14,0,0,3.39,57.96,1.97,64.7-.63,2.97.63,2.97.63,2.97l2.82,11.87,1.88,3.15,32.12,475.12-89.69,9.69c8.36-176.93,19.6-417.23,19.23-421.11-.59-6.15-16.88-.96-16.88-.96l-32.65,610.66c14.2,3.94,21.5-3.17,21.5-3.17,0,0,3.44-72.13,7.9-166.63l195.19-19.73,25.99,147.17s17.73,2.42,18.05-3.21c.32-5.63-98.6-557.76-99.95-558.78Z"/>
  <polygon class="cls-9" points="269.43 227.28 757.01 207.55 760.87 209.99 792.04 473.47 291.31 508.16 287.45 505.72 269.43 227.28"/>
  <polygon class="cls-22" points="550.77 513.27 525.78 518.03 525.13 508.31 550.22 505.39 550.77 513.27"/>
  <path class="cls-1" d="m490.26,496.5l90.65-6.26s1.44,16.47-4.38,16.47-77.87,5.44-77.87,5.44c0,0-8.99-8.6-9.57-12.64-.14-.97.1-2.93,1.18-3.01Z"/>
  <path class="cls-20" d="m472.76,201.95s38.08-9.55,44.07-9.67c6.93-.14,40.86.79,41.37,3.27.35,1.71,10.07,17.02,8.53,18.08-3.26,2.23-90.23,5.23-90.37,3.58s-4.38-9.89-3.6-15.25Z"/>
  <path class="cls-5" d="m472.92,203.48s39.37-7.61,45.36-7.77,39.01.44,40.79,2.23,10.7,14.5,7.29,16.51-89.7,5.94-89.84,4.29-4.38-9.89-3.6-15.25Z"/>
  <polygon class="cls-13" points="273.29 229.72 760.87 209.99 795.9 475.9 291.31 508.16 273.29 229.72"/>
  <path class="cls-5" d="m490.4,498.09l90.65-6.26s1.44,16.47-4.38,16.47-77.87,5.44-77.87,5.44c0,0-13.99-15.27-8.39-15.65Z"/>
  <polygon class="cls-10" points="922.53 645.25 1198.99 685.72 1131.41 697.26 854.71 656.15 922.53 645.25"/>
  <line class="cls-25" x1="946.65" y1="648.73" x2="878.83" y2="659.63"/>
  <line class="cls-25" x1="922.53" y1="645.25" x2="854.71" y2="656.15"/>
  <line class="cls-25" x1="971.18" y1="652.13" x2="903.36" y2="663.03"/>
  <line class="cls-25" x1="995.13" y1="655.71" x2="927.31" y2="666.6"/>
  <line class="cls-25" x1="1042.32" y1="662.89" x2="974.5" y2="673.79"/>
  <line class="cls-25" x1="1018.2" y1="659.41" x2="950.38" y2="670.31"/>
  <line class="cls-25" x1="1066.85" y1="666.3" x2="999.04" y2="677.19"/>
  <polygon class="cls-2" points="1008.78 693.38 1076.6 682.49 1076.6 680.56 996.26 691.24 1008.78 693.38"/>
  <polygon class="cls-17" points="1008.78 691.46 1076.6 680.56 1062.67 678.78 996.26 689.31 1008.78 691.46"/>
  <polygon class="cls-2" points="982.33 689.69 1050.14 678.79 1050.14 676.86 969.81 687.54 982.33 689.69"/>
  <polygon class="cls-17" points="982.33 687.76 1050.14 676.86 1036.22 675.08 969.81 685.61 982.33 687.76"/>
  <polygon class="cls-2" points="957.36 686.28 1025.18 675.39 1025.18 673.46 944.84 684.14 957.36 686.28"/>
  <polygon class="cls-17" points="957.36 684.35 1025.18 673.46 1011.25 671.68 944.84 682.21 957.36 684.35"/>
  <polygon class="cls-2" points="908.57 679.89 976.39 668.99 976.39 667.06 896.06 677.74 908.57 679.89"/>
  <polygon class="cls-17" points="908.57 677.96 976.39 667.06 962.46 665.28 896.06 675.81 908.57 677.96"/>
  <polygon class="cls-2" points="883.44 676.51 951.26 665.61 951.26 663.69 870.92 674.37 883.44 676.51"/>
  <polygon class="cls-17" points="883.44 674.58 951.26 663.69 937.33 661.91 870.92 672.44 883.44 674.58"/>
  <polygon class="cls-2" points="833.8 669.72 901.61 658.82 901.61 656.89 821.28 667.58 833.8 669.72"/>
  <polygon class="cls-17" points="833.8 667.79 901.61 656.89 887.69 655.12 821.28 665.65 833.8 667.79"/>
  <polygon class="cls-16" points="803.95 661.95 1137.05 711.91 1252.46 691.99 1203.87 684.89 1131.41 697.26 847.71 655.11 803.95 661.95"/>
  <polygon class="cls-14" points="803.95 661.95 803.95 681.81 1137.05 732.57 1137.05 711.91 803.95 661.95"/>
  <path class="cls-4" d="m1.16,438.06s-.06,1.19-.17,3.38c-1.14,23.22,5.51,233.22,13.35,233.23,18.92.02,3.46-245.74-2.09-242.56-5.55,3.18-11.09,5.95-11.09,5.95Z"/>
  <path class="cls-8" d="m33.75,437.36s54.06,192.62,63.77,187.72c9.71-4.89-51.29-193.74-55.45-194.89-4.16-1.15-2.08,6.47-8.32,7.17Z"/>
  <path class="cls-21" d="m33.75,430.08s33.14,71.1,41.86,107.14c6.55,27.06,21.91,87.87,21.91,87.87,0,0,7.69,3.26,1.05-25.82-13.41-58.71-46.97-172.5-52.29-173.77-7.97-1.9-12.52,4.59-12.52,4.59Z"/>
  <path class="cls-12" d="m12.17,427.52s5.45,105.35,7.8,149.74c2.35,44.39-5.63,97.41-5.63,97.41,0,0,5.43,3.19,10.33-10.88,4.91-14.06-6.81-232.45-6.81-232.45l-5.7-3.83Z"/>
  <path class="cls-8" d="m88.43,431.97c-8.35,16.43-49.94,28.21-92.29,25.87-35.82-1.98-59.29-13.37-58.9-26.64.07-2.27-.94-10.26.59-12.6,10.14-15.57,52.01-20.65,91.92-18.71,33.4,1.63,57.98,5.02,60.55,17.49.53,2.56-.5,11.88-1.88,14.59Z"/>
  <path class="cls-11" d="m88.86,422.94c-8.35,16.43-49.94,28.21-92.29,25.87-41.96-2.32-66.98-17.55-56.53-33.59s50.24-26.3,90.15-24.36c40.26,1.96,66.78,16.14,58.68,32.09Z"/>
  <path class="cls-7" d="m3.92,561.34l19.94.15s2.63,66.37,1.08,98.61c-.68,14.09-6.05,18.04-10.61,14.57-1.44-6.93-4.07-17.79-5.33-30.63-4.11-41.71-5.09-82.69-5.09-82.69Z"/>
</svg>