<?xml version="1.0" encoding="UTF-8"?>
<svg xmlns="http://www.w3.org/2000/svg" width="1920" height="1080" viewBox="0 0 1920 1080">
  <defs>
    <style>
      .cls-1 {
        fill: #707070;
      }

      .cls-1, .cls-2, .cls-3, .cls-4, .cls-5, .cls-6, .cls-7, .cls-8, .cls-9, .cls-10, .cls-11, .cls-12, .cls-13, .cls-14, .cls-15, .cls-16, .cls-17, .cls-18, .cls-19, .cls-20, .cls-21, .cls-22, .cls-23, .cls-24, .cls-25, .cls-26, .cls-27, .cls-28, .cls-29, .cls-30, .cls-31, .cls-32, .cls-33, .cls-34, .cls-35, .cls-36, .cls-37, .cls-38, .cls-39, .cls-40, .cls-41, .cls-42, .cls-43, .cls-44, .cls-45, .cls-46, .cls-47, .cls-48, .cls-49, .cls-50, .cls-51, .cls-52, .cls-53, .cls-54, .cls-55, .cls-56, .cls-57, .cls-58, .cls-59, .cls-60, .cls-61, .cls-62, .cls-63, .cls-64, .cls-65, .cls-66, .cls-67, .cls-68, .cls-69, .cls-70, .cls-71, .cls-72, .cls-73 {
        stroke-width: 0px;
      }

      .cls-2 {
        fill: #eabeb5;
      }

      .cls-3 {
        fill: #e5a280;
      }

      .cls-74 {
        stroke: #471505;
      }

      .cls-74, .cls-75 {
        fill: none;
        stroke-miterlimit: 10;
      }

      .cls-4 {
        fill: #e29764;
      }

      .cls-5 {
        opacity: .6;
      }

      .cls-5, .cls-26, .cls-59, .cls-69 {
        fill: #f7376a;
      }

      .cls-6 {
        fill: #020202;
      }

      .cls-7 {
        fill: #f4586b;
      }

      .cls-8 {
        fill: #601b06;
      }

      .cls-9, .cls-20, .cls-25, .cls-75, .cls-69 {
        opacity: .5;
      }

      .cls-9, .cls-72 {
        fill: #e0e0e0;
      }

      .cls-10 {
        fill: #262626;
      }

      .cls-11 {
        fill: #474747;
      }

      .cls-12 {
        fill: #f48989;
      }

      .cls-13 {
        fill: #a8a8a5;
      }

      .cls-14 {
        fill: #ce496b;
      }

      .cls-15 {
        fill: #e5955e;
      }

      .cls-16 {
        fill: #f7267b;
      }

      .cls-17, .cls-25, .cls-34, .cls-49 {
        fill: #d88d68;
      }

      .cls-17, .cls-59 {
        opacity: .7;
      }

      .cls-18 {
        fill: #e58876;
      }

      .cls-19 {
        fill: #e25269;
      }

      .cls-20 {
        fill: #c41a47;
      }

      .cls-21 {
        fill: #f2ac7c;
      }

      .cls-22 {
        fill: #72b2ed;
      }

      .cls-23 {
        fill: #777;
      }

      .cls-24 {
        fill: #fc9faf;
      }

      .cls-26, .cls-72 {
        opacity: .8;
      }

      .cls-27 {
        fill: #f73475;
        opacity: .2;
      }

      .cls-28 {
        fill: #ba7858;
      }

      .cls-29 {
        fill: #eaad92;
      }

      .cls-30 {
        fill: #e5856e;
      }

      .cls-31 {
        fill: #afafae;
      }

      .cls-32 {
        fill: #ccc;
      }

      .cls-33, .cls-34 {
        opacity: .4;
      }

      .cls-33, .cls-63 {
        fill: #d8977d;
      }

      .cls-35 {
        fill: #fff;
      }

      .cls-36 {
        fill: #f995a6;
      }

      .cls-37 {
        fill: #f79b7f;
      }

      .cls-38 {
        fill: #e89789;
      }

      .cls-39 {
        fill: #f7f3f0;
      }

      .cls-75 {
        stroke: #9e9e9e;
        stroke-width: .75px;
      }

      .cls-40 {
        fill: #e2e2e2;
      }

      .cls-41 {
        fill: #f2dac9;
      }

      .cls-42 {
        fill: #dd9976;
        opacity: .3;
      }

      .cls-43 {
        fill: #2d2c2c;
      }

      .cls-44 {
        fill: #7d7d7b;
      }

      .cls-45 {
        fill: #ffb3b3;
      }

      .cls-46 {
        fill: #353535;
      }

      .cls-47 {
        fill: #ed7293;
      }

      .cls-48 {
        fill: #f2b5a2;
      }

      .cls-49 {
        opacity: .49;
      }

      .cls-50 {
        fill: #281f1d;
      }

      .cls-51 {
        fill: #e09e7e;
      }

      .cls-52 {
        fill: #f78bf7;
      }

      .cls-53 {
        fill: #f9f9f9;
      }

      .cls-54 {
        fill: #3a3a3a;
      }

      .cls-55 {
        fill: #d6d6d6;
      }

      .cls-56 {
        fill: #d1783d;
      }

      .cls-57 {
        fill: #e8e8e8;
      }

      .cls-58 {
        fill: #1c1c1c;
      }

      .cls-60 {
        fill: #eaab8b;
      }

      .cls-61 {
        fill: #141110;
      }

      .cls-62 {
        fill: #eaa781;
      }

      .cls-64 {
        fill: #ffcecb;
      }

      .cls-65 {
        fill: #ffbf94;
      }

      .cls-66 {
        fill: #ef9684;
      }

      .cls-67 {
        opacity: .1;
      }

      .cls-68 {
        fill: #ea7a7a;
      }

      .cls-70 {
        fill: #303030;
      }

      .cls-71 {
        fill: #e89760;
      }

      .cls-73 {
        fill: #350e02;
      }
    </style>
  </defs>
  <g id="Wall">
    <g id="Layer_36" data-name="Layer 36">
      <g id="Layer_13" data-name="Layer 13">
        <polygon class="cls-47" points="1920.39 -1.37 1920.39 1078.63 172.7 730.17 273.04 -1.37 1920.39 -1.37"/>
      </g>
    </g>
    <g id="Layer_35" data-name="Layer 35">
      <g id="Layer_12" data-name="Layer 12">
        <path class="cls-64" d="m377.07,638.79s144.19,1.44,218.02,0,191.22,1.69,289.57,0c98.61-6.66,314.61,0,314.61,0,0,0,334.96,2.96,453.91,0,124.04-5.48,266.83,0,266.83,0,0,0,16.43,441.21,0,441.21H0v-182.57l377.07-258.65Z"/>
      </g>
    </g>
    <g id="Layer_34" data-name="Layer 34">
      <g id="Layer_11" data-name="Layer 11">
        <path class="cls-24" d="m0,0v1080h142.76s16.83-29.01,32.46-58.03c12.98-24.1,24.68-49.31,28.37-56.25,4.45-8.38,18.48-33.97,32.22-60.27,11.36-21.73,22.61-43.25,28.35-54.05,12.68-23.88,20.09-34.78,33.28-59.62s13.01-31.06,22.7-49.3,22.24-37.82,31.34-54.96,25.6-48.73,25.6-48.73c0,0-1.5-46.21-1.5-63.98s1.76-37.7,1.76-72.07-.26-128.87-.26-170.15-.26-56.21,0-69.32-1.01-80.84-1.01-109.01,1.27-86.66,1.27-108.05-.26-46.2-.26-46.2H0Z"/>
        <path class="cls-24" d="m203.59,965.72c4.45-8.38,19.97-34.28,33.72-60.59,11.36-21.73,21.11-42.93,26.85-53.73"/>
      </g>
    </g>
  </g>
  <g id="Shelf">
    <polygon class="cls-14" points="166.74 616.09 166.74 639.07 295.17 475.87 174.29 547.02 166.74 616.09"/>
    <polygon class="cls-45" points="292.14 395.67 398.08 395.67 298.67 547.02 174.29 547.02 292.14 395.67"/>
    <rect class="cls-68" x="174.29" y="547.02" width="124.37" height="15.72"/>
    <polygon class="cls-12" points="298.67 547.02 398.08 395.67 398.08 409.03 298.67 562.87 298.67 547.02"/>
  </g>
  <g id="Teddy">
    <path class="cls-20" d="m342.94,494.31s-5.85,8.2-7.29,9.86c-2.11,2.45-5.22,2.83-9.79,1.45-3.47,1.06-7.11,1.25-10.6-.07-7.39-2.81-5.56-5.38-7.23-4.64-2.4,1.07-35.14-.46-51.09-2.54-14.19-1.86-21.44-2.81-40.22-5.97-.27-.38-12.72-20.97-12.95-63.79-.16-29.72,9.91-38.05,9.91-38.05,0,0-6.09-16.77-4.17-28.82,2.52-15.87,7.57-21.05,12.26-27.05-8.09-15.08,5.4-27.28,14.01-28.91,8.61-1.62,20.82,2.34,20.82,2.34,0,0,3.38-4.89,5.42-4.89s16.91-11.93,21.14-11.93,15.63,1.12,15.63,1.12l22.21,177.13,21.93,24.75Z"/>
    <path class="cls-3" d="m300.79,340.88s33.52-22.09,11.35-46.17c-15.86-17.23-31.89,7.24-31.89,7.24,0,0,9,3.91,11.74,10.37s8.8,28.57,8.8,28.57Z"/>
    <path class="cls-48" d="m372.59,430.16c-2.99,1.69-6.66,6.05-8.16,13.14s-.71,12.55,1.03,17.53c1.61,4.62,4.66,9.21,7.45,8.68s3.27-3.47,4.84-8.31,2.21-11.72,2.35-14.28c.16-2.94,1.86-11.58-.35-14.85s-4.16-3.6-7.15-1.91Z"/>
    <path class="cls-28" d="m303.59,327.3s18.6-12.63,5.56-28.74c-9.32-11.52-17.05,2.36-17.05,2.36,0,0,4.91,5.11,7.8,10.98s3.69,15.4,3.69,15.4Z"/>
    <path class="cls-51" d="m302.72,426.28s40.78,4.23,43.39,1.45,9.5-3.34,14.66-4.4,13.56-.55,15.82.96,3.12,6.66,1.97,6.39-4.31-3.2-5.02,2.05-6.57,11.1-4.59,20.56,2.84,17.94,2.23,18.3-20.9,2-23.2,1.11-43.72-25.7-45.07-29.33-.19-17.09-.19-17.09Z"/>
    <path class="cls-62" d="m275.02,300.05s-20.93,6.46-25.83,15.26-9.59,17.8-9.59,30.13,2.93,22.7,2.93,22.7c0,0-6.55,14.59-8.61,21.91-7.04,25.09-6.85,72.39-3.33,84.33s68.67,23.47,77.87,19.76c3.72-1.5,2.93-1.37,5.87,1.17s7.24,4.3,16.43,1.96,23.09-12.13,25.04-19.37,3.68-9.03,3.68-9.03c0,0-2.72-20.23-1.01-21.94.92-.92-3.66-4.65-10.2-7.03-5.57-2.02-13.14-2.81-13.53-2.81-.42,0-12.54,2.84-15.06,2.27s1.16-3.12,1.42-4.05c2.38.55,11.08-3.06,12.12-10.37s-17.22-56.09-18.78-56.09,1.63-31.53,1.63-31.53c0,0,6.07,4.01,6.85,3.62s1.17-5.97-1.08-13.6-8.61-23.97-15.65-23.67-12.75-7.73-31.21-3.62Z"/>
    <path class="cls-33" d="m259.46,348.18s-8.62-1.31-12.77-3.4-6.73-5.09-6.73-5.09c0,0,1.58-15.42,7.35-16.4s15.46,20.35,15.46,20.35l-3.31,4.54Z"/>
    <path class="cls-42" d="m286.19,445.19s-5.42-46.71-13.29-51.75c-7.38-4.72-11.64-6.84-11.64-6.84,0,0-7.32,26.02,8.87,42.56,6.47,6.61,3.69,13.97,6.69,16.03,4.52,3.11,9.36,0,9.36,0Z"/>
    <path class="cls-60" d="m336.07,438.18s-23.9,14.15-27.59,30.18-5.77,19.61-1.37,22.06,11.93,8.51,17.02,8.12,10.86-1.08,13.6-3.13,11.04-7.07,13.32-8.86c3.23-2.54,12.29-21.86,11.22-25.97s-.25-15.75-6.91-18.49-16.64-4.11-19.29-3.91Z"/>
    <path class="cls-63" d="m259.46,348.18s-33.52-22.09-11.35-46.17c15.86-17.23,30.46,3.2,30.46,3.2,0,0-7.57,7.96-10.3,14.41-2.2,5.18-2.57,22.73-4.2,28.57-.4,1.44-4.61,0-4.61,0Z"/>
    <path class="cls-29" d="m343.89,446.99s-21.85,5.22-24.2,22.04,0,23.61,4.04,25.83,17.57,1.08,24.14-4.56,14.64-26.94,14.38-29.22-2.78-15.13-18.37-14.09Z"/>
    <path class="cls-41" d="m308.22,336.77s5.84-.85,8.09,0,5.58,2.8,5.97,4.08,3.03,3.13,3.13,6.85.63,8.99-1.47,12.13c-2.74,4.11-7.14,9.49-13.79,11.64s-7.92,3.33-10.47,1.76,1.17-19.37,2.45-21.23c.82-1.2,1.83-7.47,3.33-11.54.82-2.24,2.33-3.29,2.77-3.68Z"/>
    <path class="cls-11" d="m322.13,341.63s-2.84,2.15-2.35,4.7,2.1,3.86,3.13,3.86,1.71.05,1.96-1.27,1.57-2.98.88-4.21-1.52-3.57-3.62-3.08Z"/>
    <path class="cls-11" d="m315.26,357.83s.31,4.89,5.84,4.24c.42-.05,1.53-.28,1.51-.36,0-.04,0,0,.22-.3-.37,0-1.42.18-1.68.17-5.23-.24-3.68-3.31-4.99-3.75-.58-.2-.9,0-.9,0Z"/>
    <path class="cls-11" d="m323.38,349.87s1.15,7.38-2.23,11.71c.11.09.41.29.59.03,2.09-3.19,2.43-8.67,2.09-11.74"/>
    <path class="cls-11" d="m305.74,332.59s-1.52.33-1.17,3.46,0,3.77.71,3.62,1.59-.68,2.12-1.57c.62-1.03.79-2.03.47-3.96-.21-1.26-1.11-1.65-2.13-1.55Z"/>
    <path class="cls-11" d="m313.18,333.31c-.11.82.07,2.71-1.01,2.82s2.32.99,3,.6.6-4.09-.25-4.16-1.63-.09-1.74.73Z"/>
    <path class="cls-3" d="m264.07,348.18s-33.52-22.09-11.35-46.17c15.86-17.23,30.46,3.2,30.46,3.2,0,0-7.57,7.96-10.3,14.41s-8.8,28.57-8.8,28.57Z"/>
    <path class="cls-28" d="m264.87,334.69s-18.6-12.63-5.56-28.74c9.32-11.52,17.05,2.36,17.05,2.36,0,0-4.91,5.11-7.8,10.98s-3.69,15.4-3.69,15.4Z"/>
    <path class="cls-48" d="m349.05,452.33c-3.83,0-9.78,2.35-15.13,8.74s-7.57,12.43-8.61,18.52c-.97,5.66-.52,12.11,2.48,13.17s9.78,1.83,13.96-2.22,9.78-9.65,10.96-12.39,2.97-12.72,2.61-17.35-2.43-8.48-6.26-8.48Z"/>
    <path class="cls-25" d="m320.83,435.93l-1,.79s-1.06,2.02-.99,1.69c3.78-17.79-7.15-52.85-6.66-53.63s10.29,34.72,8.66,51.16Z"/>
    <path class="cls-17" d="m239.01,395.65s7.01,63.71,11.1,64.77c11.03,2.86,19.43-.19,23.74-2.61,4.53-2.54,4.73-4.65,6.34-10.02,1.07-3.58-41.19-52.14-41.19-52.14Z"/>
    <path class="cls-49" d="m318.84,438.4s1.82.56.89.96c-7.3,3.13-26.85,8.48-34.46,5.67,14.91,1.01,33.57-6.63,33.57-6.63Z"/>
    <path class="cls-62" d="m239.01,393.63s8.3,67.3,13.52,66.78,24.19,1.53,26.54-11.41-7.76-59.31-15.85-62.17-23.12,4.45-24.21,6.8Z"/>
    <path class="cls-34" d="m242.55,368.14s26.55,14.02,52.11,7.5,4.15-.78,4.15-.78c0,0-24.63,14.35-56.26-5.48"/>
    <path class="cls-2" d="m309,382.69c3.98-4.29,1.31-7.72-2.97-7.65-5.3.09-6.95,3.26-8.43,7.53-5.33-3.44-14.2-5.29-14.99.11-1.56,10.72,14.44,3.52,14.44,3.52,0,0-1.81,12.3-1.91,13.29-.1.99,1.72.31,3.26-.03,1.54-.34.48-11.52,1.04-10.79s8.01,11.15,8.49,11,2.64-1.23,3.5-1.5c.86-.28-11.9-12.85-12.23-13.21s5.83,2,9.81-2.28Zm-6.41-3.01c1.33-2.18,4.67-3.56,5.68-.65,1.41,4.08-7.21,3.82-7.21,3.82,0,0,.43-1.34,1.53-3.16Zm-17.13,5.51s-2.25-4.15,3.3-3.65c5.55.5,6.45,2.33,6.45,2.33,0,0-7.77,3.12-9.75,1.32Z"/>
  </g>
  <g id="Shadow">
    <polygon class="cls-5" points="1556.39 683.46 1621.77 669.03 1660.71 700.82 1556.39 683.46"/>
    <path class="cls-5" d="m1498.86,699.01l-17.32-7.29s.01-.72.13-1.73c-1.47-.86-.25-2.16.43-2.39,9.02-3.1,40.8-11.34,44.51-11.05,4.36.35,33.03.76,33.03.76,0,0-.78,4.32-7.12,5.41-5.22.9-16.26,1.67-21.33,3.12-2.64.75-19.43,6.7-19.43,6.7l-7.73,6.75"/>
    <polygon class="cls-26" points="1222.3 738.95 1297.76 717.41 1203.87 739.64 1197.3 741.66 1490.39 783.96 1222.3 738.95"/>
    <polygon class="cls-5" points="1724.38 655.81 1693.14 637.39 1709.93 543.49 1724.38 655.81"/>
    <polyline class="cls-59" points="1564.03 278.65 1558.4 285.2 1406.43 286.14 1406.49 178.88 1409.95 169.77 1564.03 278.65"/>
    <polygon class="cls-69" points="306.14 551.29 304.65 538.56 251.78 535.76 270.56 516.02 277.15 515.24 306.14 530.78 317.74 524.72 316.58 535.14 306.14 551.29"/>
    <path class="cls-5" d="m209.95,848.01s69.79,62.52,65.37,75.86c-18.71,11.51-26.34,14.25-56.08,14.25-22.3-17.22-20.38-71.34-14.72-84.41,4.92-11.38,5.43-5.71,5.43-5.71Z"/>
    <path class="cls-69" d="m878.37,798.08l174.26-20.24-214.97-98.34-241.11,25.11s-31.91-7.4-50.34-7.33c-8.25.03-17.74,1-40.63,3.92-2.18.28-81.5-20.52-97-23.89,2.97-1.62,7.94-4.96,10.71-6.74,2.92-1.87,59.67,23.18,78.36,20.03,2.44-.41-71.93-24.88-70.24-26.48.67-.63,195.58,31.27,196.71,30.27.11-.1,4.02-2.06-.76-2.99-35.13-6.83-191.06-31.63-190.23-32.39,1.39-1.27,2.62-2.46,3.25-3.27,23.31-30.12-57.22-60.99-59.06-60.48-9.72,2.66-30.51,90.07-27.64,98.16,1.6,4.51,22.07.41,43.38-8.63,31.44,7.81,83.62,20.11,82.6,20.25-21.75,2.89-39.84,5.47-39.84,5.47l18.24,8.95-128.64,13.39-3.3-82.94-23.46,135.64,204.59,56.11,162.24-18.84,224.87,87.14,23-2.35-88.19-35.93,177.96-25.58,96.04,28.56,20.12-2.38-240.93-74.18Zm-70.1,66.7l-111.86-45.57,14.7-1.71,70.14,29.89h14.94s-68.52-29.97-62.31-28.75c6.9,1.36,14.72,2.73,16.96,2.48,1.21-.13,4.81-.56,9.37-1.12,1.36-.16,2.81-.34,4.3-.52,3.53-.43,7.32-.89,10.84-1.32,2.94-.36,5.7-.7,7.97-.98,3.57-.44,5.94-.73,5.94-.73l93.72,38.58,34.55-4.51-114.37-36.96s20.67-2.82,22.04-3.6c1.37-.78-.26-5.69-.26-5.69l27.07-3.14,135.42,40.27-179.14,23.37Z"/>
  </g>
  <g id="Stand">
    <polygon class="cls-56" points="778.72 843.5 974.72 493.05 986.81 504.89 781.24 847.39 778.72 843.5"/>
    <polygon class="cls-71" points="781.24 847.39 979.06 493.71 991.15 505.55 796.18 847.39 781.24 847.39"/>
    <g id="Layer_21" data-name="Layer 21">
      <path class="cls-15" d="m1030.92,406.33c-1.13-.85-11.37.14-13.9,3.13l57.13,323.54-67.62,7.86-27.11-387.1,4.29-8.22-6.32-11.24s-3.01-48.25-3.23-53.49c-.23-5.24-16.67-.95-16.67-.95l6.66,73.67,26.03,388.9-74.47,7.9c6.96-147.44,16.22-345.25,15.91-348.48-.49-5.12-14.06-.8-14.06-.8l-27.2,508.88c11.83,3.28,17.92-2.64,17.92-2.64,0,0,2.86-60.11,6.59-138.86l162.66-16.44,21.66,122.64s14.78,2.02,15.05-2.67c.27-4.69-82.17-464.8-83.29-465.65Z"/>
      <path class="cls-21" d="m1036,406.62c-1.13-.85-11.37.14-13.9,3.13l57.59,326.14-67.93,7.34-27.26-389.18-1.8-9.64,22.15-4.36-22.38-5.45s-3.01-48.25-3.23-53.49c-.23-5.24-16.67-.95-16.67-.95,0,0,2.83,48.3,1.64,53.92-.52,2.47.52,2.47.52,2.47l2.35,9.89,1.57,2.62,26.77,395.93-74.74,8.08c6.96-147.44,16.33-347.69,16.02-350.92-.49-5.12-14.06-.8-14.06-.8l-27.2,508.88c11.83,3.28,17.92-2.64,17.92-2.64,0,0,2.86-60.11,6.59-138.86l162.66-16.44,21.66,122.64s14.78,2.02,15.05-2.67c.27-4.69-82.17-464.8-83.29-465.65Z"/>
    </g>
    <polygon class="cls-32" points="767.38 362.89 1173.7 346.44 1176.91 348.47 1202.89 568.04 785.61 596.95 782.4 594.92 767.38 362.89"/>
    <polygon class="cls-67" points="1001.83 601.21 981 605.18 980.46 597.07 1001.37 594.64 1001.83 601.21"/>
    <path class="cls-4" d="m951.41,587.23l75.54-5.22s1.2,13.73-3.65,13.73-64.89,4.53-64.89,4.53c0,0-7.5-7.17-7.98-10.54-.12-.81.08-2.44.99-2.51Z"/>
    <path class="cls-65" d="m936.82,341.77s31.74-7.96,36.72-8.06c5.77-.12,34.05.66,34.48,2.72.29,1.42,8.39,14.18,7.11,15.06-2.72,1.86-75.19,4.36-75.31,2.98s-3.65-8.24-3-12.71Z"/>
    <path class="cls-21" d="m936.96,343.05s32.81-6.34,37.8-6.48,32.51.37,33.99,1.86,8.92,12.09,6.08,13.75-74.75,4.95-74.87,3.57-3.65-8.24-3-12.71Z"/>
    <polygon class="cls-39" points="770.6 364.92 1176.91 348.47 1206.11 570.07 785.61 596.95 770.6 364.92"/>
    <path class="cls-21" d="m951.52,588.56l75.54-5.22s1.2,13.73-3.65,13.73-64.89,4.53-64.89,4.53c0,0-11.66-12.72-6.99-13.04Z"/>
  </g>
  <g id="Midi">
    <polygon class="cls-57" points="1490.39 766.74 1490.39 783.96 1586.57 766.74 1586.57 750.15 1490.39 766.74"/>
    <polygon class="cls-35" points="1311.63 711.19 1542.01 744.92 1485.7 754.53 1255.11 720.27 1311.63 711.19"/>
    <line class="cls-75" x1="1331.73" y1="714.09" x2="1275.21" y2="723.17"/>
    <line class="cls-75" x1="1311.63" y1="711.19" x2="1255.11" y2="720.27"/>
    <line class="cls-75" x1="1352.17" y1="716.93" x2="1295.66" y2="726.01"/>
    <line class="cls-75" x1="1372.13" y1="719.91" x2="1315.61" y2="728.99"/>
    <line class="cls-75" x1="1411.46" y1="725.89" x2="1354.94" y2="734.98"/>
    <line class="cls-75" x1="1391.36" y1="722.99" x2="1334.84" y2="732.08"/>
    <line class="cls-75" x1="1431.9" y1="728.73" x2="1375.38" y2="737.81"/>
    <line class="cls-75" x1="1451.85" y1="731.71" x2="1395.34" y2="740.79"/>
    <line class="cls-75" x1="1471.63" y1="734.76" x2="1415.11" y2="743.84"/>
    <line class="cls-75" x1="1492.07" y1="737.6" x2="1435.55" y2="746.68"/>
    <line class="cls-75" x1="1512.02" y1="740.58" x2="1455.51" y2="749.66"/>
    <line class="cls-75" x1="1532.47" y1="743.41" x2="1475.95" y2="752.49"/>
    <polygon class="cls-10" points="1446.32 759.64 1502.84 750.56 1502.84 748.95 1435.89 757.85 1446.32 759.64"/>
    <polygon class="cls-54" points="1446.32 758.03 1502.84 748.95 1491.23 747.47 1435.89 756.24 1446.32 758.03"/>
    <polygon class="cls-10" points="1425.48 756.86 1482 747.78 1482 746.18 1415.05 755.08 1425.48 756.86"/>
    <polygon class="cls-54" points="1425.48 755.26 1482 746.18 1470.39 744.69 1415.05 753.47 1425.48 755.26"/>
    <polygon class="cls-10" points="1383.5 751.3 1440.02 742.22 1440.02 740.61 1373.07 749.52 1383.5 751.3"/>
    <polygon class="cls-54" points="1383.5 749.7 1440.02 740.61 1428.41 739.13 1373.07 747.91 1383.5 749.7"/>
    <polygon class="cls-10" points="1361.46 748.22 1417.97 739.14 1417.97 737.53 1351.03 746.44 1361.46 748.22"/>
    <polygon class="cls-54" points="1361.46 746.62 1417.97 737.53 1406.37 736.05 1351.03 744.83 1361.46 746.62"/>
    <polygon class="cls-10" points="1340.65 745.39 1397.17 736.3 1397.17 734.7 1330.22 743.6 1340.65 745.39"/>
    <polygon class="cls-54" points="1340.65 743.78 1397.17 734.7 1385.56 733.22 1330.22 741.99 1340.65 743.78"/>
    <polygon class="cls-10" points="1300 740.06 1356.51 730.97 1356.51 729.37 1289.57 738.27 1300 740.06"/>
    <polygon class="cls-54" points="1300 738.45 1356.51 729.37 1344.91 727.89 1289.57 736.66 1300 738.45"/>
    <polygon class="cls-10" points="1279.05 737.24 1335.57 728.16 1335.57 726.55 1268.62 735.46 1279.05 737.24"/>
    <polygon class="cls-54" points="1279.05 735.64 1335.57 726.55 1323.96 725.07 1268.62 733.85 1279.05 735.64"/>
    <polygon class="cls-10" points="1237.68 731.58 1294.2 722.5 1294.2 720.9 1227.25 729.8 1237.68 731.58"/>
    <polygon class="cls-54" points="1237.68 729.98 1294.2 720.9 1282.59 719.41 1227.25 728.19 1237.68 729.98"/>
    <polygon class="cls-53" points="1212.81 725.11 1490.39 766.74 1586.57 750.15 1546.08 744.22 1485.7 754.53 1249.28 719.4 1212.81 725.11"/>
    <polygon class="cls-40" points="1212.81 725.11 1212.81 741.66 1490.39 783.96 1490.39 766.74 1212.81 725.11"/>
  </g>
  <g id="PS1">
    <g id="Layer_27" data-name="Layer 27">
      <path class="cls-13" d="m1575.41,674.93c.18-.2.39-.4,1.42-.47.46-.03.28-.15.48-.21.3-.09.71-.16,1.21-.18-.27-.09-.5-.18-1-.01-.11.03-.36.04-.5.07-2.7.59-4.57.33-6.47-.02-1.84-.33-3.81-.63-5.76-.93-.77-.12-1.28-.28-1.45-.51.22-.13.7-.19,1.15-.26,5.78-.8,11.57-1.6,17.36-2.4,4.97-.68,9.94-1.36,14.93-2.04,6.33-.86,12.62-1.74,18.99-2.58,1.22-.16,2.47-.32,3.64-.51,2.03-.33,3.79-.32,5.34-.05,1.96.34,4.13.61,6.21.91,4.41.63,8.79,1.27,13.17,1.92.62.09,1.34.16,1.46.38-.31-.03-.62-.01-.96.04-2.86.42-5.71.84-8.57,1.26-.07.01-.14.02-.2.03-.27.06-.24.12.03.11.86,0,1.66.1,2.58-.03,2.3-.32,4.58-.65,6.77-1.03,3.1.43,6.03.92,9.13,1.34,4.01.55,7.93,1.12,11.91,1.68,2.58.36,5.2.71,7.58,1.14-.36.24.42.3.85.41,3.27.79,5.7,1.72,6.63,2.9.71.9-.25,1.82-2.64,2.69-1.72.62-4.15,1.1-6.72,1.5-4.04.63-8.27.97-12.66,1.26-3.95.26-7.74.35-11.52.36-3.77,0-7.45-.08-11.06-.23-2.26-.1-4.5-.2-6.65-.35-3.57-.25-7.04-.55-10.26-.96-1.64-.21-3.35-.4-4.75-.68-2.07-.42-4.26-.8-6.18-1.26-1.44-.35-2.78-.72-3.95-1.12-1.69-.59-2.88-1.24-3.14-2.03-.14-.43-.14-.86.28-1.31.92-.97,3.16-1.76,6.57-2.41,2.38-.45,4.94-.77,7.61-1.04.43-.04.9-.06,1.26-.16.17,0,.34,0,.5-.03.03,0,.05-.01.08-.02-.03,0-.05.01-.08.02-.17,0-.34,0-.5.03-1.36,0-2.65.18-3.93.32-3.68.39-7.07.92-9.79,1.72-2.26.67-3.48,1.4-3.92,2.18-.2.34-.65.5-1.99.66-2.3.27-4.5.6-6.7.94-1.16.18-2.33.34-3.4.56-.66.14-1.35.09-1.93,0-3.11-.49-6.23-.98-9.34-1.47-.34-.05-.71-.09-1.12-.12h0Zm17.9-1.93l-.06-.03s.02.02.04.03l.1.07s.07.04.1.07c.03.02.06.05.09.07-.1.63-.73.84-3.72,1.22.82.07,2.05-.09,3.26-.41.96-.26,1.16-.55.59-.83-.05-.02-.09-.04-.14-.06-.04-.02-.08-.04-.12-.06-.04-.02-.08-.04-.13-.06Zm-1.82-2.49c-.94.15-1.24.33-.67.52.04.03.12.07.25.04.16-.03-.05-.05-.11-.07-.01-.16.23-.31.58-.47.08-.01.2-.02.12-.05-.01,0-.11.01-.17.02Zm64.33,2.02c-.53-.13-1.3-.13-2.02-.15-.26,0-.51.04-.62.11-.1.06-.01.11.15.14.13.03.34.04.49-.01.7-.23,1.25-.09,1.85-.06.39.22-.66.17-.94.26.25.06.56.07.89.05.34-.02.79.02.99-.1.19-.11-.19-.15-.42-.2-.09-.02-.24-.03-.37-.04Zm-23.08,4.9c.2.01.4.03.61.03.33,0,.72.09,1,0,.29-.1-.19-.15-.43-.19-.39-.07-.3-.14.15-.21.89-.13,1.1-.28.67-.46-.78-.33-1.43-.4-2.45-.23-1.23.21-2.35.32-3.46.12-.31-.05-.8-.05-1.21-.07-.23-.01-.5-.05-.71.02-.27.09.06.13.23.17,1.58.37,3.29.7,5.6.82Zm-6-.35c-.67.02-.02-.22-.76-.21-.46,0-.69-.08-.94-.17-.25-.09-.47-.23-1.05-.25-.29-.01-.58-.01-.81.07-.24.08.13.1.19.14.21.15,1.03.14,1.23.29.31.22.87.31,2.13.13Zm23.26-4.9c.35.06.66.1.95.16.3.05.64.09,1.01.11.43.03.77-.01,1.1-.11.38-.11.04-.18-.1-.23-.55-.22-1.89-.19-2.96.08Zm5.89.83c.85.12,2.11.07,2.49.33.07.04.49,0,.73-.05.32-.06.61-.12.9-.18-.07-.03-.53-.11-.69-.07-.84.25-.67,0-.82-.06-.39-.13-.59-.35-1.63-.08-.19.05-.56.06-.98.09Zm-76.92,1.13c2.69.39,5.7.57,9.21.42-1.57-.03-3.23.02-4.76-.07-1.55-.09-3.11-.17-4.46-.35Zm52.62,3.55c-.12,0-.25-.08-.47,0-.17.07-.27.14-.22.21.05.07.11.13.51.12.55-.02,1.21,0,1.4.09.28.12.49.02.66-.01.36-.06.35-.15.01-.16-.75-.03-1.16-.19-1.89-.25Zm28.99-4.46c-.02.1.21.19-.08.28-.77.22.15.22.39.2.86-.09,1.62-.04,2.49-.08-1.2-.04-1.85-.26-2.8-.39Zm-67.48-2.66c.69.17,1.55.28,2.35.4.24.04.59.05.8-.03.3-.11-.2-.1-.39-.13-.51-.08-1.06-.14-1.58-.21-.33-.05-.6-.14-1.18-.03Zm-17.24,2.61c-.28.37.57.55,1.6.7-.45-.25-1.38-.41-1.6-.7Zm23.11-2.26c.09.22-.75.36-1.2.55,1.24-.1,1.62-.26,1.2-.55Zm-23.14,2.15c.21-.16.42-.32.67-.51-.82.17-.93.33-.67.51Zm1.1-.62s-.02-.02-.02-.02c-.03,0-.07,0-.1.01.02.01.03.02.05.03l.07-.02Zm20.4-.97h.04s.03,0,.03,0h-.06Z"/>
      <path class="cls-13" d="m1644.96,682.71c.73-.05,1.4-.15,1.98-.27,1.17-.23,2.33-.32,3.63-.3.74.01,1.55-.04,2.3-.03.74,0,1.62-.02,1.7.23.01.04.08.11.4.08-.05-.35-.05-.34,1.56-.4,5.74-.21,11.41-.55,16.8-1.39,3.86-.6,6.96-1.36,8.54-2.41.64-.43,1-.86.88-1.28-.07-.22.39-.35,1.07-.47,1.3-.21,2.68-.39,3.93-.62,1.03-.19,2.19-.33,3.07-.57.12.02.26.03.4,0,1.83-.36,3.2-.23,4.56,0,1.76.29,3.63.55,5.42.83,2.34.37,4.77.72,7.18,1.07,2.69.39,5.45.76,8.1,1.17.63.1,1.38.18,1.37.42-1.25.23-2.49.45-3.74.68-4.38.79-8.84,1.55-13.34,2.29-3.02.5-5.95,1.03-8.94,1.55-4.01.69-8.04,1.38-12.05,2.07-3.85.66-7.69,1.33-11.54,1.99-1.29.22-2.62.43-3.86.67-1,.2-2.9.2-3.81.01-2.36-.48-5.09-.83-7.68-1.23-4.85-.75-9.76-1.49-14.64-2.23-.03,0-.06,0-.09-.01-.5-.12-1.59-.1-1.47-.36.11-.25,1.14-.28,1.75-.41.2-.04.34-.09.37-.15h.02c.9-.03,1.66-.13,2.15-.35h.01c.8-.02,1.47-.1,1.86-.31h.01c.13,0,.22,0,.28-.04h.02c.73,0,1.3-.1,1.77-.25h.01Zm10.37-.16s0-.01,0-.02c0,0-.03,0-.04,0,.02,0,.04.02.05.03.04.02.07.04.11.07-.17.17.15.27.68.41-.04-.21-.16-.34-.7-.41-.04-.02-.07-.04-.11-.07Zm12.45,2.02s-.05-.02-.08-.03c0,.01.02.02.03.03.26.36-.43.7-1.35,1.08,1.7-.33,2.27-.82,1.4-1.08Zm-16.67-.93c-.21-.07-.49.06-.69.02-.86-.16-1.08.03-1.38.2-1.03.59.08.96,1.32,1.29,2.06.54,4.84.83,7.99.95,2.08.08,4.24.05,6.46-.17.51-.05,1.07-.1,1.5-.27-.8.01-1.33.15-1.94.2-5.21.37-9.44.1-12.89-.63-1.96-.41-2.45-.96-.38-1.6Zm.42-.09h-.03s-.03,0-.03,0h.06Z"/>
      <path class="cls-13" d="m1690.89,675.06c-1.91.36-3.92.67-5.99.96-1.27.17-1.67.16-1.91-.13-.46-.57-1.63-1.04-2.78-1.51-1.11-.45-2.26-.89-3.98-1.21-.57-.11-.88-.29-1.31-.44,3.52.5,7.06.99,10.55,1.5,1.83.27,3.79.49,5.42.82Z"/>
      <path class="cls-44" d="m1645.23,668.43c-2.19.38-4.47.71-6.77,1.03-.92.13-1.72.02-2.58.03-.27,0-.3-.06-.03-.11.06-.01.13-.02.2-.03,2.86-.42,5.72-.84,8.57-1.26.34-.05.65-.06.96-.04.2.13-.21.25-.35.38Z"/>
      <path class="cls-13" d="m1674.55,672.7c-.42.06-.4,0-.35-.07.2,0,.34.02.35.07Z"/>
      <path class="cls-13" d="m1638.83,683.66c-.83.07-1.58.18-2.25.33-.66.15-1.18.15-1.77.06-7.86-1.21-15.73-2.41-23.58-3.63-7.71-1.19-15.39-2.39-23.09-3.59-.11-.02-.18-.05-.31-.08,3.64-.53,7.25-1.05,10.85-1.57.58-.08.69-.04.74.09.67,1.53,3.87,2.64,7.99,3.59,3.56.83,7.72,1.47,12.24,1.98,2.5.28,5.08.54,7.8.73,2.12.15,4.25.3,6.44.41,3.75.19,7.61.31,11.58.35.25,0,.48.02.81.03-.36.15-1.23.16-1.32.33,0,0-.01,0-.01,0-.73,0-1.3.1-1.77.25h-.02c-.13,0-.22.01-.28.04,0,0-.01,0-.01,0-.69.07-1.39.13-1.86.3h-.01c-.79.08-1.58.16-2.15.35h-.02Z"/>
      <path class="cls-13" d="m1592.19,682.97c-2.15-.12-3.64-.48-5.42-.74-1.75-.26-3.4-.55-5.21-.78-.75-.1-1.48-.18-2-.35-.64-.2-.41-.55.67-.72,2.52-.42,5.09-.81,7.63-1.21.54-.09.76.02,1.03.06,3.06.47,6.09.94,9.13,1.42,1.69.26,3.37.53,5.03.8.78.13.69.21-.26.35-2.19.31-4.33.64-6.35,1.03-1.18.23-2.28.27-4.25.16Z"/>
      <path class="cls-13" d="m1625.08,687.7c-.34.11-.71.1-1.05.05-4.24-.68-8.48-1.35-12.72-2.03-.89-.14-1.8-.28-2.68-.43-.22-.04-.56-.09-.2-.19.31-.08.52-.02.74.02,5.19.82,10.38,1.63,15.57,2.45.19.03.49.03.33.13Z"/>
      <path class="cls-13" d="m1577.3,681.68c.06-.16.68-.28.91-.43.09.02.26.04.26.07,0,.34.71.53,1.79.69,3.06.45,6.05.93,9.03,1.41,1.1.18,2.23.33,3.72.32-1.5.14-2.83.1-3.96-.05-1.76-.24-3.29-.55-5.04-.79-1.92-.27-3.71-.58-5.57-.87-.54-.08-.3-.33-1.14-.35Z"/>
      <path class="cls-13" d="m1623.58,687.26c-1.49-.24-2.99-.48-4.5-.72-2.69-.42-5.4-.84-8.09-1.27-.27-.04-.87-.08-.5-.2.43-.15.78-.03,1.09.02,3.88.61,7.75,1.21,11.62,1.82.34.05.66.11.98.17.2.04.32.09.1.16-.24.08-.47.03-.71.02Z"/>
      <path class="cls-13" d="m1627.56,686.32c-5.64-.8-10.93-1.72-16.44-2.56.1-.03.21-.07.31-.1,5.47.86,10.93,1.72,16.4,2.57-.09.03-.18.06-.27.09Z"/>
      <path class="cls-13" d="m1601.29,680.87c-4.7-.62-9.13-1.32-13.43-2.06.34-.07.61-.02.92.03,3.14.5,6.28.99,9.44,1.48.31.05.54.16,1.12.06.09-.01.37,0,.37.01.11.25,1.02.32,1.58.47Z"/>
      <path class="cls-13" d="m1575.41,674.93c-.19.07-.2.23-.69.18-.53-.05-1.17-.1-1.39-.25-.05-.03.13-.07.27-.08.3-.03.58-.04.82,0,.31.06.49.16.99.15,0,0,0,0,0,0Z"/>
      <path class="cls-13" d="m1668.67,688.16c.12-.02.16-.02.17-.02.39.05,1.06-.06,1.29.07.03.02-.07.07-.11.07-.59.03-.89-.07-1.34-.12Z"/>
      <path class="cls-44" d="m1632.74,677.44c-2.31-.12-4.02-.45-5.6-.82-.17-.04-.51-.08-.23-.17.22-.07.48-.03.71-.02.41.02.9.02,1.21.07,1.12.19,2.23.09,3.46-.12,1.02-.17,1.67-.1,2.45.23.43.18.22.33-.67.46-.45.07-.54.13-.15.21.24.05.72.09.43.19-.28.1-.67.01-1,0-.21,0-.41-.02-.61-.03Z"/>
      <path class="cls-44" d="m1626.75,677.09c-1.27.18-1.83.09-2.13-.13-.2-.15-1.02-.14-1.23-.29-.07-.05-.43-.06-.19-.14.23-.08.52-.08.81-.07.58.03.8.16,1.05.25.25.09.48.18.94.17.74-.01.09.23.76.21Z"/>
      <path class="cls-44" d="m1650.01,672.19c1.06-.27,2.41-.3,2.96-.08.14.06.48.12.1.23-.33.1-.67.13-1.1.11-.37-.02-.71-.05-1.01-.11-.29-.05-.6-.1-.95-.16Zm.83-.04s-.04-.01-.06-.02c.02,0,.04.01.07.02.03.03,0,.08.23.04-.08-.01-.16-.02-.24-.03Zm.73.15c.06,0,.13,0,.19,0-.04-.01-.06-.03-.11-.03-.05,0-.12,0-.19,0,.04.01.07.02.11.03Z"/>
      <path class="cls-44" d="m1655.9,673.02c.42-.04.79-.05.98-.09,1.04-.27,1.24-.05,1.63.08.15.05-.02.31.82.06.16-.05.62.04.69.07-.29.06-.58.12-.9.18-.23.04-.66.09-.73.05-.39-.26-1.65-.21-2.49-.33Z"/>
      <path class="cls-44" d="m1593.7,673.19c.57.28.36.57-.59.83-1.21.33-2.44.48-3.26.41,2.99-.38,3.62-.59,3.72-1.22.04,0,.09-.01.13-.02Z"/>
      <path class="cls-44" d="m1578.98,674.16c1.34.18,2.9.27,4.46.35,1.53.08,3.19.04,4.76.07-3.52.15-6.53-.03-9.21-.42Z"/>
      <path class="cls-44" d="m1631.6,677.71c.73.06,1.14.21,1.89.25.33.02.35.1-.01.16-.17.03-.38.13-.66.01-.2-.08-.86-.1-1.4-.09-.4.01-.46-.04-.51-.12-.05-.07.04-.14.22-.21.23-.09.35-.01.47,0Z"/>
      <path class="cls-44" d="m1660.58,673.25c.95.13,1.6.35,2.8.39-.87.04-1.63-.01-2.49.08-.24.03-1.16.02-.39-.2.3-.08.07-.17.08-.28Z"/>
      <path class="cls-44" d="m1593.1,670.59c.58-.11.84-.02,1.18.03.52.07,1.07.14,1.58.21.19.03.69.02.39.13-.21.08-.56.07-.8.03-.8-.13-1.66-.23-2.35-.4Z"/>
      <path class="cls-44" d="m1575.87,673.2c.22.29,1.15.45,1.6.7-1.03-.15-1.88-.33-1.6-.7Z"/>
      <path class="cls-44" d="m1655.82,672.54c.12.01.27.02.37.04.24.05.61.1.42.2-.21.12-.65.08-.99.1-.33.01-.65,0-.89-.05.28-.1,1.33-.04.94-.26.05,0,.1-.02.16-.03Z"/>
      <path class="cls-44" d="m1655.66,672.57c-.6-.03-1.16-.17-1.85.06-.14.05-.35.04-.49.01-.16-.03-.24-.08-.15-.14.11-.07.37-.12.62-.11.72.03,1.49.03,2.02.15-.05,0-.11.02-.16.03Z"/>
      <path class="cls-44" d="m1598.97,670.93c.42.29.04.45-1.2.55.45-.19,1.29-.33,1.2-.55Z"/>
      <path class="cls-44" d="m1590.83,671.04c-.58-.2-.27-.37.67-.52.02.01.03.02.05.03-.34.15-.59.3-.58.46-.05,0-.1.02-.15.02Z"/>
      <path class="cls-44" d="m1575.83,673.09c-.27-.18-.15-.34.67-.51-.25.19-.46.35-.67.51Z"/>
      <path class="cls-44" d="m1618.02,670.12c-.16.04-.33.04-.5.03,0,0,0,0,0,0,.16-.04.33-.04.5-.03h0Z"/>
      <path class="cls-44" d="m1576.93,672.46l-.07.02s-.03-.02-.05-.03c.03,0,.07,0,.1-.01,0,0,.02.02.02.02Z"/>
      <path class="cls-44" d="m1590.97,671.01c.06.02.27.03.11.07-.13.03-.21-.01-.25-.04.05,0,.1-.02.14-.02Z"/>
      <path class="cls-44" d="m1618.02,670.12s.05-.01.08-.02c-.03,0-.05.01-.08.02,0,0,0,0,0,0Z"/>
      <path class="cls-44" d="m1593.58,673.21s-.06-.05-.09-.07h.08s.09.03.14.05c-.04,0-.08.01-.13.02Z"/>
      <path class="cls-44" d="m1593.49,673.14s-.07-.04-.1-.07c0,0,.06,0,.06,0,.04.02.08.04.12.06,0,0-.08.01-.08.01Z"/>
      <path class="cls-44" d="m1593.32,673s.08.04.13.06c0,0-.06,0-.06,0-.03-.02-.07-.04-.1-.07h.03Z"/>
      <path class="cls-44" d="m1593.29,673.01s-.02-.02-.04-.03c.02,0,.04.02.06.03,0,0-.03,0-.03,0Z"/>
      <polygon class="cls-44" points="1597.33 671.49 1597.4 671.49 1597.37 671.5 1597.33 671.49"/>
      <path class="cls-44" d="m1591.5,670.52c.06,0,.16-.02.17-.02.08.03-.03.04-.12.05-.02-.01-.04-.02-.05-.03Z"/>
      <path class="cls-44" d="m1651.11,683.63c-2.07.64-1.58,1.18.38,1.6,3.44.73,7.67.99,12.89.63.61-.04,1.14-.18,1.94-.2-.43.17-.99.22-1.5.27-2.22.21-4.38.25-6.46.17-3.15-.12-5.94-.41-7.99-.95-1.24-.33-2.35-.7-1.32-1.29.29-.17.52-.35,1.38-.2.2.04.48-.09.69-.02Z"/>
      <path class="cls-44" d="m1667.79,684.56c.87.26.3.76-1.4,1.08.92-.38,1.61-.72,1.35-1.08h.05Z"/>
      <path class="cls-44" d="m1638.85,683.65c.57-.18,1.37-.26,2.15-.35-.49.22-1.26.32-2.15.35Z"/>
      <path class="cls-44" d="m1641.01,683.31c.47-.17,1.17-.24,1.86-.3-.39.21-1.06.29-1.86.3Z"/>
      <path class="cls-44" d="m1643.18,682.96c.47-.15,1.03-.25,1.77-.25-.47.15-1.03.25-1.77.25Z"/>
      <path class="cls-44" d="m1655.44,682.61c.54.07.65.2.7.41-.53-.14-.85-.24-.68-.41h-.01Z"/>
      <path class="cls-44" d="m1655.45,682.61s-.07-.04-.11-.07h-.01s.07.05.11.07c0,0,.01,0,.01,0Z"/>
      <path class="cls-44" d="m1642.89,683c.06-.03.16-.05.28-.04-.06.04-.15.05-.28.04Z"/>
      <polygon class="cls-44" points="1651.53 683.54 1651.47 683.54 1651.5 683.53 1651.53 683.54"/>
      <path class="cls-44" d="m1655.34,682.54s-.04-.02-.05-.03c.02,0,.04,0,.04,0,0,0,0,.01,0,.02,0,0,.01,0,.01,0Z"/>
      <path class="cls-44" d="m1667.74,684.57s-.02-.02-.03-.03c.03,0,.05.02.08.03,0,0-.05,0-.05,0Z"/>
      <path class="cls-13" d="m1651.57,672.3s-.07-.02-.11-.03c.06,0,.14-.01.19,0,.05,0,.08.02.11.03-.06,0-.13,0-.19,0Z"/>
      <path class="cls-13" d="m1650.84,672.15l.24.03c-.23.04-.2,0-.23-.04h-.01Z"/>
      <path class="cls-13" d="m1650.85,672.15s-.04-.01-.07-.02c.02,0,.04.01.06.02,0,0,.01,0,.01,0Z"/>
      <path class="cls-44" d="m1557.03,678.42c.75.26,1.29.56,1.94.84,2.63,1.14,2.95,2.38-.38,3.81-1.81.78-1.24,1.05,1.92,1.17.14,0,.28,0,.42.01,3.99.12,8.13-.08,12.27-.31,2.31-.13,4.59-.34,7.12-.61-2.61-.34-5.01-.68-3.02-1.64.83.02.6.26,1.14.35,1.86.29,3.65.6,5.57.87,1.75.24,3.28.56,5.04.79,1.13.15,2.46.19,3.96.05-1.49,0-2.62-.14-3.72-.32-2.98-.48-5.97-.96-9.03-1.41-1.08-.16-1.78-.35-1.79-.69,0-.03-.17-.05-.26-.07-.06-.02-.1-.04-.18-.06-.54-.09,84.25,19.57,83.77,19.61-5.51.54-92.22-16.49-98.45-17.5v-10.63c.16.23.67.39,1.45.51,1.95.3,3.93.59,5.76.93,1.9.35,3.77.61,6.47.02.15-.03.4-.04.5-.07.5-.17.73-.08,1,.01-.5.02-.91.09-1.21.18-.2.06-.01.18-.48.21-1.04.07-1.25.27-1.42.47-.5,0-.69-.09-.99-.15-.24-.04-.52-.04-.82,0-.15.02-.32.05-.27.08.22.15.86.2,1.39.25.49.05.5-.11.69-.18.41.02.77.06,1.12.12,3.1.49,6.23.98,9.34,1.47.58.09,1.27.14,1.93,0,1.07-.22,2.23-.38,3.4-.56,2.2-.34,4.4-.67,6.7-.94,1.34-.16,1.79-.31,1.99-.66.45-.78,1.66-1.51,3.92-2.18,2.72-.8,6.1-1.33,9.79-1.72,1.28-.14,2.57-.31,3.93-.32,0,0,0,0,0,0-.36.1-.83.11-1.26.16-2.67.26-5.23.59-7.61,1.04-3.41.65-5.65,1.44-6.57,2.41-.43.45-.42.88-.28,1.31.26.79,1.45,1.45,3.14,2.03,1.17.4,2.51.77,3.95,1.12,1.91.46,4.11.84,6.18,1.26,1.4.28,3.11.47,4.75.68,3.22.41,6.69.71,10.26.96,2.15.15,4.39.26,6.65.35,3.61.15,7.28.24,11.06.23,3.78,0,7.57-.1,11.52-.36,4.39-.29,8.62-.63,12.66-1.26,2.58-.4,5.01-.88,6.72-1.5,2.4-.87,3.35-1.79,2.64-2.69-.93-1.18-3.36-2.11-6.63-2.9-.44-.1-1.21-.17-.85-.41.12.01.24.03.36.04-.06.07-.07.13.35.07.12.01.25.02.37.03.43.15.74.33,1.31.44,1.72.32,2.87.76,3.98,1.21,1.16.46,2.32.93,2.78,1.51.24.29.64.3,1.91.13,2.07-.28,4.07-.6,5.99-.96.34.06.09.14-.06.22-.88.24-2.04.38-3.07.57-1.26.23-2.64.41-3.93.62-.68.11-1.14.24-1.07.47.12.42-.24.85-.88,1.28-1.58,1.06-4.68,1.81-8.54,2.41-5.39.84-11.06,1.18-16.8,1.39-1.62.06-1.61.05-1.56.4-.32.02-.39-.04-.4-.08-.08-.26-.95-.23-1.7-.23-.75,0-1.56.05-2.3.03-1.3-.02-2.46.06-3.63.3-.58.12-1.25.22-1.98.27.09-.18.96-.19,1.32-.33-.32-.01-.56-.03-.81-.03-3.97-.03-7.83-.15-11.58-.35-2.19-.11-4.32-.26-6.44-.41-2.72-.2-5.3-.45-7.8-.73-4.52-.51-8.67-1.15-12.24-1.98-4.12-.96-7.32-2.06-7.99-3.59-.05-.12-.16-.17-.74-.09-3.6.52-7.2,1.04-10.85,1.57.13.03.2.06.31.08,7.69,1.2,15.38,2.4,23.09,3.59,7.85,1.21,15.73,2.42,23.58,3.63.59.09,1.11.09,1.77-.06.67-.15,1.42-.26,2.25-.33-.03.06-.18.11-.37.15-.61.13-1.64.16-1.75.41-.12.26.97.24,1.47.36.02,0,.06,0,.09.01,4.88.74,9.79,1.47,14.64,2.23,2.59.4,5.32.76,7.68,1.23.91.18,2.81.19,3.81-.01,1.24-.25,2.57-.45,3.86-.67,3.85-.66,7.69-1.33,11.54-1.99,4.02-.69,8.04-1.38,12.05-2.07,2.98-.51,5.92-1.05,8.94-1.55,4.5-.74,8.96-1.5,13.34-2.29,1.25-.23,2.49-.45,3.74-.68-.05.3.19.72-.35,1.01-.27.14.98,7.68-.56,8.5-.6.32-54.76,12.54-55.17,12.51-.12-.03-57.18-13.26-66.09-14.67-.46-.07-4.26-1.46-5.16-1.44-1.06.03-2.06-.04-3.01-.2-1.32-.22-2.68-.43-4.01-.65-.43-.07-.85-.06-1.43,0-6.18.71-12.42,1.1-18.71,1.15-2.5.02-4.95-.02-6.92-.34-1.73-.28-2.18-.72-1.27-1.27.55-.33,1.15-.66,1.83-.99,1.91-.91,1.48-2.25-1.01-2.88l1.02-1.1Zm35.16,4.55c1.97.11,3.07.07,4.25-.16,2.03-.39,4.16-.72,6.35-1.03.95-.13,1.04-.22.26-.35-1.66-.27-3.35-.54-5.03-.8-3.03-.48-6.07-.95-9.13-1.42-.27-.04-.48-.14-1.03-.06-2.54.41-5.11.8-7.63,1.21-1.07.18-1.31.52-.67.72.52.16,1.25.25,2,.35,1.81.24,3.45.53,5.21.78,1.77.26,3.27.62,5.42.74Zm32.89,4.74c.16-.1-.14-.1-.33-.13-5.19-.82-10.38-1.63-15.57-2.45-.22-.03-.43-.1-.74-.02-.37.1-.03.15.2.19.88.15,1.79.28,2.68.43,4.24.68,8.48,1.35,12.72,2.03.34.05.7.07,1.05-.05Zm-1.5-.45c.24.02.47.06.71-.02.22-.07.09-.12-.1-.16-.32-.06-.65-.12-.98-.17-3.87-.61-7.74-1.22-11.62-1.82-.31-.05-.66-.17-1.09-.02-.37.12.23.16.5.2,2.69.43,5.4.84,8.09,1.27,1.51.24,3.01.48,4.5.72Zm3.98-.94c.09-.03.18-.06.27-.09-5.47-.86-10.93-1.72-16.4-2.57-.1.03-.21.07-.31.1,5.51.84,10.8,1.76,16.44,2.56Zm-26.27-5.45c-.56-.16-1.47-.22-1.58-.47,0-.01-.29-.03-.37-.01-.58.1-.81-.01-1.12-.06-3.15-.49-6.3-.99-9.44-1.48-.31-.05-.58-.1-.92-.03,4.3.74,8.73,1.44,13.43,2.06Zm67.38,7.3c.45.06.75.15,1.34.12.04,0,.14-.06.11-.07-.23-.14-.9-.02-1.29-.07-.01,0-.05,0-.17.02Z"/>
    </g>
    <g>
      <path class="cls-13" d="m1549.53,661.96c.36,1.02.81,2.03.47,3.18-.56,1.87-1.81,3.48-4.02,4.74-1.36.78-2.76,1.45-4.39,1.82-2.23.5-4.4.59-6.54.29-.22-.03-.48-.15-.69.06-.27.28.17.25.29.35.33.27,0,.39-.32.49-2.19.72-4.38,1.43-6.56,2.15-3.72,1.23-7.44,2.47-11.16,3.7-.47.16-.95.3-1.42.46-.2.06-.38.07-.51-.04-.15-.12-.16-.26-.07-.43.94-1.82.99-2.9.14-4.44.26,1.04.37,2.1-.14,3.19-1,2.14-2.68,3.88-5.55,5.05-2.26.92-4.57,1.45-7,1.53-.18,0-.48-.11-.51.16-.02.23.3.17.49.16,1.54-.11,3.08-.2,4.62-.56.96-.22,1.19-.07.87.61-1.17,2.57-1.43,5.15-1.9,7.74-.2,1.1-.45,2.2-.7,3.3-.23,1-1.16,1.57-2.45,1.82-2.44.46-4.89.33-5.98-1.43-.56-.9-.68-1.95-.71-2.95-.04-1.1-.32-2.13-.52-3.18-.37-1.95-.8-3.89-1.18-5.83-.11-.58-.4-1.24-.11-1.77.46-.83-.18-1.27-.51-1.8-.38-.62-.24-1.35-.66-1.94,0-1.04.4-2.04,1.06-3.03.21-.31.5-.61.53-.96.31-.11.57-.27.5-.52-.14-.51-.07-1.08-.46-1.54-.16-.87.42-1.54,1.44-2.08,2.14-1.11,4.44-1.83,6.92-2.07,1.03-.1,1.73.25,2.31.75.36.3.73.6,1.06.92.41.38.94.45,1.61.26.87.5,1.58.47,2.49-.13,2.3-.46,4.42-1.33,6.58-2.09.8-.18,1.64-.28,2.28-.77,1.39-.26,2.66-.83,3.99-1.23,1.73-.52,3.42-1.13,5.15-1.65.77-.23,1.29-.54,1.39-1.14.86-.38.91-1.86.08-2.42,0-1.62,1.68-2.26,3.39-2.85,1.39-.48,2.85-.78,4.31-1.03,1.18-.2,2.12-.02,2.79.65.74.74,1.65,1.21,3.07,1.37,2.57.28,4.7,1.15,6.04,2.76-.14.14-.14.26.06.34.03.02.06.04.08.05Zm-27.92,10.12c-.71.26-1.29.82-2.18.64-.17-.03-.36.09-.44.24-.09.15.03.25.13.36.2.2.27-.03.39-.1.19-.1.36-.05.54-.03.43.05.81-.41,1.26-.18-.09-.58.61-.29.89-.47.13-.08.42-.09.34-.27-.04-.09-.2-.15-.32-.19-.17-.06-.4.22-.58.02.02-.03.04-.05.06-.08-.03.02-.05.04-.08.07Zm-.72-3.66c.24.02.48.03.72.05.35.02.75.23,1.04-.05.23-.22-.18-.42-.19-.66-.01-.33-.3-.31-.65-.2-.64.21.31.29.01.47-.38.06-.68-.06-1.01-.08-.3-.02-.87.12-.82.22.17.32.34.65.58.94.09.11.51,0,.71-.21-.16-.14-.46-.2-.42-.44l.03-.03Zm14.26-3.2c-1.2-.32-2.3,0-2.86.86-.9.64-1,1.15-.52,1.8.61.82,2.69.68,3.65.27.93-.39,1.56-1.21,1.45-1.8-.1-.58-.88-1.09-1.73-1.13Zm5.09-3.43c-.18-.74-.83-1.16-1.84-1.25-1.04-.1-1.98.16-2.71.84-1.11,1.03-.85,1.98.63,2.35,1.14.28,2.57-.04,3.44-.78.42-.35.6-.73.48-1.15Zm5.13,3.05c1.26-.25,2.3-1.12,2.21-1.83-.12-.94-1.62-1.57-3.07-1.3-1.35.26-2.38,1.2-2.21,2.03.18.86,1.64,1.38,3.07,1.1Zm-3.47,4.65c1.5-.3,2.4-1.11,2.21-1.99-.2-.96-1.61-1.56-3-1.28-1.29.26-2.44,1.38-2.27,2.21.18.9,1.53,1.37,3.07,1.06Zm-37.15,10.97c.8-.26,1.59-.54,2.39-.79.73-.23.77-.55.57-.99-.42-.88-1.28-1.29-2.58-1.37-.65-.04-1.06.16-1.46.54-.91.85-.61,1.57-.06,2.28.24.32.57.47,1.14.32Zm-1.92-7.15c-.3.1-.84.26-1.37.43-1.37.45-1.5.68-.88,1.57.04.06.07.12.11.17.49.71,1.47.79,2.47.76,1.01-.04,1.36-.69,1.68-1.25.4-.68-.26-1.13-.61-1.62-.22-.3-.71-.24-1.4-.07Zm4.93,3.65c.61-.08,1.14-.35,1.71-.52.45-.13.55-.41.5-.68-.28-1.65-1.54-2.04-3.64-1.13-.06.02-.12.04-.18.06-.93.46-1.46,1.67-.82,1.97.69.32,1.5.47,2.41.3Zm-7.52-.31c-.59.2-1.17.4-1.76.61-.28.1-.6.28-.43.47.51.58.45,1.47,1.24,1.82.72.32,1.55-.4,2.35-.57.09-.02.17-.07.25-.11.91-.46,1.42-1.67.75-1.93-.69-.27-1.46-.54-2.42-.3Zm26.42-4.92c-.51.12-.88.15-1.22.33-.32.17-.6.4-.35.62.21.19.26.41.39.61.25.37.6.42,1.11.15.69-.37,1.38-.74,2.06-1.11.27-.15.56-.32.39-.57-.14-.2-.42-.28-.76-.23-.59.08-1.17.15-1.62.2Zm-5.63,2.9c-.18-.83-.49-.92-1.59-.54-.38.13-.76.26-1.14.39-.8.28-1.04.62-.57,1.15.33.37.69.42,1.3.26.45-.12.76-.43,1.27-.48.64-.06.97-.35.73-.77Zm2.29-4.02c-.58.12-.82-.08-1.09-.32-.31-.26-.9-.27-1.27-.08-.65.33.37.76-.19,1.18-.08.06-.03.28.17.32.13.03.3-.03.45-.03.94,0,1.27-.68,1.93-1.08Zm-1.74,4.88c-.78.01-1.43.26-1.62.7-.2.47-.75-.1-.92.28-.55-.53-.98.35-1.5.22,0,0-.05.04-.05.06,0,.25.13.58.48.48,1.29-.39,2.55-.86,3.91-1.32-.31-.14-.63.18-.74-.06-.11-.24.44-.14.45-.35Zm-6.15-4.62c.57-.16,1.26-.24,1.44-.8.07-.23-1.02-.64-1.4-.56-.55.12-1.27.24-1.11.76.08.26.03.99,1.07.6Zm3.11-.99c.61-.19,1.35-.38,1.25-.98-.08-.48-.74-.48-1.33-.38-.82.14-1.52.66-1.39,1.03.19.54.84.41,1.47.33Zm4.25-2.6c.6.16,1.4.05,1.4.69,0,.11.24.07.34-.07.11-.16.67-.16.48-.32-.55-.44.29-.76.31-1.12-.69-.07-.74.39-1.03.74-.43-.51-.9-.21-1.5.07Zm4.87,6.21c-.62-.03-1.1.3-1.65.43-.27.06-.28.23-.22.39.06.17.18.26.45.2.22-.05.44-.09.42-.31,0-.09-.11-.3,0-.25.79.35.52-.5,1-.47Zm-3.19-1.73c.45.01.61-.42,1.03-.54-.28-.5-.71.02-1.07.02-.06,0-.13.01-.18.04-.21.1-.66.04-.53.36.09.23.39.21.75.12Zm3.66,2.03c.47-.11.93-.21,1.02-.57.05-.19-.24-.24-.46-.21-.67.09-.28.54-.56.77Z"/>
      <path class="cls-44" d="m1510.32,669.97c-.91.6-1.63.63-2.49.13-.77-2.29,2.83-4.53,5.49-4.56,1.6-.02,3.27.02,4.64.61.53.23.98.52,1.22.96-.64.5-1.48.6-2.28.77-.15-.27-.53-.32-.87-.37-.79-.12-1.61-.18-2.38-.32-1.19-.21-2.06.31-2.84.91-.74.57-.98,1.22-.49,1.87Z"/>
      <path class="cls-44" d="m1529.79,660.67c.83.56.78,2.04-.08,2.42-.41-.77-.16-1.6.08-2.42Z"/>
      <path class="cls-44" d="m1494.47,672.32c.39.45.32,1.02.46,1.54.07.26-.19.41-.5.52-.37-.65-.07-1.36.04-2.06Z"/>
      <path class="cls-13" d="m1549.81,661.71c.01.14-.14.19-.28.25-.03-.02-.06-.04-.08-.05,0-.08,0-.15,0-.23.12.01.25.02.37.04Z"/>
      <path class="cls-44" d="m1549.44,661.68c0,.08,0,.15,0,.23-.2-.08-.21-.19-.06-.34.03.03.05.07.05.11Z"/>
      <path class="cls-44" d="m1540.24,661.79c.12.42-.06.8-.48,1.15-.88.74-2.3,1.07-3.44.78-1.48-.37-1.74-1.31-.63-2.35.73-.68,1.66-.94,2.71-.84,1.01.09,1.66.51,1.84,1.25Z"/>
      <path class="cls-44" d="m1545.37,664.84c-1.43.28-2.89-.24-3.07-1.1-.17-.83.86-1.78,2.21-2.03,1.45-.27,2.95.36,3.07,1.3.09.72-.95,1.59-2.21,1.83Z"/>
      <path class="cls-44" d="m1541.89,669.49c-1.53.31-2.88-.15-3.07-1.06-.17-.83.98-1.96,2.27-2.21,1.39-.28,2.8.32,3,1.28.19.88-.71,1.69-2.21,1.99Zm.31-3.04c-.4,1.12-1.38.96-2.39.78.45.2,1.04.22,1.28.44.28.26-.51.64-.22,1.23.25-1.52,1.36-1.07,2.34-.91q-1.32-.66-1.02-1.53Z"/>
      <path class="cls-23" d="m1504.75,680.46c-.57.14-.89,0-1.14-.32-.55-.72-.85-1.44.06-2.28.4-.37.81-.58,1.46-.54,1.3.08,2.16.49,2.58,1.37.21.44.16.76-.57.99-.8.25-1.59.53-2.39.79Z"/>
      <path class="cls-23" d="m1502.83,673.31c.69-.17,1.19-.23,1.4.07.35.49,1,.93.61,1.62-.32.56-.67,1.21-1.68,1.25-1,.04-1.98-.05-2.47-.76-.04-.06-.07-.12-.11-.17-.62-.89-.49-1.12.88-1.57.53-.18,1.07-.34,1.37-.43Z"/>
      <path class="cls-23" d="m1507.76,676.96c-.91.17-1.72.02-2.41-.3-.64-.3-.11-1.51.82-1.97.05-.03.12-.04.18-.06,2.1-.9,3.36-.51,3.64,1.13.05.27-.05.56-.5.68-.57.16-1.1.43-1.71.52Z"/>
      <path class="cls-23" d="m1500.24,676.65c.95-.24,1.72.03,2.42.3.67.26.16,1.47-.75,1.93-.08.04-.17.09-.25.11-.81.17-1.63.89-2.35.57-.8-.35-.73-1.24-1.24-1.82-.17-.19.15-.37.43-.47.58-.21,1.17-.41,1.76-.61Z"/>
      <path class="cls-44" d="m1535.15,665.22c.85.04,1.62.55,1.73,1.13.11.59-.52,1.41-1.45,1.8-.97.41-3.04.55-3.65-.27-.48-.65-.38-1.16.52-1.8.06.01.11.03.16.05-.03.57.34,1.12.65,1.48.38.44,1.26-.41,1.99-.46.03,0,.06-.01.09-.02.7-.15.89-.4.52-.83-.26-.3-.43-.65-.65-.97.03-.04.07-.07.1-.11Zm-2.6,2.32l.04.05.02-.06h-.06Z"/>
      <path class="cls-44" d="m1526.67,671.74c.44-.06,1.03-.13,1.62-.2.35-.04.62.04.76.23.17.25-.12.42-.39.57-.68.37-1.37.74-2.06,1.11-.51.27-.87.22-1.11-.15-.13-.2-.18-.42-.39-.61-.25-.22.03-.45.35-.62.33-.18.71-.21,1.22-.33Z"/>
      <path class="cls-44" d="m1521.03,674.64c.24.42-.09.71-.73.77-.52.05-.82.36-1.27.48-.61.16-.97.11-1.3-.26-.47-.53-.24-.87.57-1.15.38-.13.76-.26,1.14-.39,1.1-.38,1.41-.28,1.59.54Z"/>
      <path class="cls-44" d="m1523.33,670.62c-.67.4-1,1.08-1.93,1.08-.15,0-.32.06-.45.03-.2-.04-.26-.26-.17-.32.56-.43-.46-.85.19-1.18.37-.19.96-.19,1.27.08.27.23.51.44,1.09.32Z"/>
      <path class="cls-44" d="m1521.58,675.5c-.01.21-.56.12-.45.35.11.25.43-.08.74.06-1.35.47-2.61.94-3.91,1.32-.34.1-.47-.23-.48-.48,0-.02.04-.06.05-.06.52.13.95-.75,1.5-.22.18-.39.72.19.92-.28.18-.44.84-.68,1.62-.7Z"/>
      <path class="cls-44" d="m1515.43,670.88c-1.04.4-.98-.33-1.07-.6-.16-.51.55-.64,1.11-.76.38-.08,1.48.33,1.4.56-.18.55-.88.64-1.44.8Zm-.37-.31c.44.02.9.05,1.32-.42-.56.15-.98.16-1.32.42Z"/>
      <path class="cls-44" d="m1520.86,668.45c-.03.24.26.3.42.44-.2.22-.62.32-.71.21-.24-.29-.41-.62-.58-.94-.05-.1.52-.23.82-.22.33.02.63.13,1.01.08.3-.18-.65-.25-.01-.47.34-.11.63-.13.65.2.01.24.42.44.19.66-.29.28-.69.07-1.04.05-.24-.01-.48-.03-.72-.05-.03,0-.07,0-.1,0,.02,0,.05.02.07.03Z"/>
      <path class="cls-44" d="m1521.64,672.08c.17.19.4-.08.58-.02.13.04.29.1.32.19.08.18-.21.19-.34.27-.28.18-.98-.11-.89.47-.44-.23-.83.23-1.26.18-.17-.02-.35-.07-.54.03-.12.07-.2.3-.39.1-.1-.1-.22-.2-.13-.36.08-.14.27-.27.44-.24.89.18,1.48-.38,2.18-.64h.02Z"/>
      <path class="cls-44" d="m1518.54,669.89c-.63.09-1.28.22-1.47-.33-.13-.37.58-.89,1.39-1.03.58-.1,1.24-.1,1.33.38.1.6-.64.79-1.25.98Zm.68-.85c-.18-.23-.48-.31-.91-.21-.37.09-.7.27-.62.54.09.32.5.41.94.27.32-.1.63-.27.58-.61Z"/>
      <path class="cls-44" d="m1522.79,667.29c.6-.28,1.06-.58,1.5-.07.28-.34.34-.81,1.03-.74-.02.37-.85.68-.31,1.12.19.15-.37.16-.48.32-.1.14-.34.17-.34.07,0-.64-.8-.53-1.4-.69Z"/>
      <path class="cls-44" d="m1532.29,666.08c.56-.85,1.66-1.18,2.86-.86-.03.04-.07.07-.1.11-.92.14-1.76.48-2.6.8-.05-.02-.1-.04-.16-.05Z"/>
      <path class="cls-44" d="m1527.66,673.5c-.47-.03-.21.82-1,.47-.1-.05,0,.16,0,.25.02.22-.21.26-.42.31-.27.06-.39-.04-.45-.2-.06-.16-.05-.33.22-.39.55-.13,1.03-.46,1.65-.43Z"/>
      <path class="cls-44" d="m1524.47,671.77c-.36.08-.66.11-.75-.12-.12-.32.32-.26.53-.36.05-.02.12-.04.18-.04.36,0,.8-.52,1.07-.02-.42.12-.58.55-1.03.54Z"/>
      <path class="cls-44" d="m1528.13,673.8c.28-.23-.11-.68.56-.77.22-.03.51.02.46.21-.1.35-.55.46-1.02.57Z"/>
      <path class="cls-44" d="m1521.61,672.07s.05-.04.08-.07c-.02.03-.04.05-.06.08,0,0-.02-.01-.02-.01Z"/>
      <path class="cls-22" d="m1542.2,666.45q-.31.87,1.02,1.53c-.98-.15-2.09-.61-2.34.91-.29-.59.5-.97.22-1.23-.25-.22-.83-.24-1.28-.44,1.01.18,1.99.35,2.39-.78Z"/>
      <path class="cls-52" d="m1532.45,666.13c.85-.32,1.68-.66,2.6-.8.21.33.39.67.65.97.37.43.18.68-.52.83-.03,0-.06.02-.09.02-.73.05-1.61.9-1.99.46-.31-.36-.67-.91-.65-1.48Zm1.47,1.13c.44-.33,1.45-.16,1.38-.8-.03-.29-.05-.96-.85-.73-.49.14-1.53.07-1.39.8.06.29.16.75.86.73Z"/>
      <polygon class="cls-13" points="1532.55 667.54 1532.61 667.53 1532.59 667.58 1532.55 667.54"/>
      <path class="cls-13" d="m1515.06,670.57c.34-.27.77-.27,1.32-.42-.43.48-.88.44-1.32.42Z"/>
      <path class="cls-13" d="m1520.86,668.45s-.05-.02-.07-.03c.03,0,.07,0,.1,0,0,0-.03.03-.03.03Z"/>
      <path class="cls-13" d="m1519.22,669.04c.05.34-.26.51-.58.61-.44.14-.85.05-.94-.27-.08-.28.25-.45.62-.54.42-.1.72-.02.91.21Z"/>
      <path class="cls-44" d="m1533.93,667.26c-.7.02-.8-.43-.86-.73-.15-.73.9-.66,1.39-.8.8-.24.82.43.85.73.07.64-.94.47-1.38.8Z"/>
      <path class="cls-44" d="m1556.6,671.41c.69,1.46,1.87,2.68,2.56,4.12.74,1.54.64,3.03-.66,4.52-2.13,2.45-6.73,3.42-9.82,2.12-1.88-.79-3.5-1.81-5.17-2.78-2.28-1.33-4.27-2.96-7.58-3.23-.93-.08-1.75-.06-2.63.22-5.79,1.89-11.58,3.82-17.35,5.76-1.43.48-2.19,1.15-2.53,2.17-.09.27-.19.54-.28.81-1.18,3.36-2.3,6.73-3.57,10.08-.86,2.27-3.64,3.93-6.99,4.36-2.92.37-5.88-.72-7.03-2.57-.11-.18-.06-.45-.41-.52-.11-.52-.21-1.04-.32-1.56.23-.15.11-.3.08-.44-.84-4.37-1.35-8.79-2.27-13.14-.2-.96,0-1.96.21-2.95.42.59.28,1.32.66,1.94.33.53.96.97.51,1.8-.29.52,0,1.18.11,1.77.38,1.95.8,3.89,1.18,5.83.2,1.05.49,2.09.52,3.18.03,1.01.15,2.05.71,2.95,1.09,1.75,3.55,1.89,5.98,1.43,1.28-.24,2.22-.81,2.45-1.82.25-1.1.5-2.2.7-3.3.47-2.58.72-5.17,1.9-7.74.31-.68.08-.83-.87-.61-1.54.36-3.08.45-4.62.56-.19.01-.51.07-.49-.16.03-.27.32-.16.51-.16,2.44-.08,4.75-.61,7-1.53,2.87-1.17,4.55-2.92,5.55-5.05.51-1.09.4-2.15.14-3.19.84,1.53.8,2.61-.14,4.44-.09.17-.08.32.07.43.13.1.31.1.51.04.47-.15.95-.3,1.42-.46,3.72-1.23,7.44-2.47,11.16-3.7,2.19-.72,4.38-1.43,6.56-2.15.31-.1.65-.21.32-.49-.13-.11-.56-.07-.29-.35.21-.21.47-.09.69-.06,2.14.3,4.31.22,6.54-.29,1.63-.37,3.03-1.04,4.39-1.82,2.21-1.26,3.45-2.86,4.02-4.74.34-1.15-.11-2.16-.47-3.18.14-.06.29-.11.28-.25l6.79,9.7Z"/>
    </g>
  </g>
  <g id="TV">
    <polygon class="cls-70" points="1849.33 561.82 1849.99 655.81 1724.38 655.81 1724.38 562.87 1849.33 561.82"/>
    <polygon class="cls-58" points="1724.38 562.87 1724.38 655.81 1711.5 636.97 1709.93 543.49 1724.38 562.87"/>
    <polygon class="cls-1" points="1849.33 561.82 1724.38 562.87 1709.93 543.49 1833.41 543.49 1849.33 561.82"/>
    <path class="cls-31" d="m1828.49,585.88l.32,45.91c.05,7.49-6.01,13.59-13.5,13.59h-70.4c-7.35,0-13.34-5.87-13.49-13.22l-.97-46.8c-.16-7.63,6.03-13.87,13.66-13.77l71.04.89c7.35.09,13.28,6.05,13.33,13.4Z"/>
    <polygon class="cls-70" points="1794.19 545.58 1794.29 556.27 1775.85 556.27 1775.85 545.7 1794.19 545.58"/>
    <polygon class="cls-58" points="1775.85 545.7 1775.85 556.27 1773.96 554.13 1773.72 543.49 1775.85 545.7"/>
    <polygon class="cls-1" points="1794.19 545.58 1775.85 545.7 1773.72 543.49 1791.85 543.49 1794.19 545.58"/>
    <polygon class="cls-70" points="1761.38 523.27 1783.35 545.13 1785.07 544.59 1763.39 521.72 1761.38 523.27"/>
    <polygon class="cls-70" points="1801.19 517.78 1783.96 544.59 1786.28 544.59 1803.89 518.85 1801.19 517.78"/>
    <path class="cls-55" d="m1794.29,580.48c3.15-2.61,30.28-3.13,30.28,14.09,0,11.86-1.05-4.59-13.3-7.04-9.12-1.82-20.12-4.43-16.97-7.04Z"/>
  </g>
  <g id="Khung_tranh" data-name="Khung tranh">
    <polygon class="cls-46" points="1562.03 275.68 1411.95 278.65 1409.95 275.68 1409.95 169.77 1562.03 169.77 1564.03 172.74 1562.03 275.68"/>
    <rect class="cls-54" x="1411.95" y="172.74" width="152.07" height="105.91"/>
    <rect class="cls-43" x="1418.12" y="178.22" width="139.75" height="94.96"/>
    <path class="cls-16" d="m1476.37,237.42c1.44-1.91,2.78-3.68,4.12-5.46,7.05-9.36,14.1-18.71,21.15-28.07.18-.24.35-.49.53-.72.66-.81,1.61-1.1,2.51-.78.89.31,1.47,1.15,1.47,2.18,0,5.59,0,11.17-.01,16.76,0,.71,0,.71.74.71,7.56,0,15.12,0,22.69,0,1.19,0,2.15.97,2.19,2.2.03,1.09-.93,2.07-2.11,2.17-.15.01-.3,0-.45,0-7.39,0-14.79,0-22.18,0q-.87,0-.87.88c0,5.49,0,10.98,0,16.48,0,1.58-1.31,2.67-2.75,2.31-.9-.22-1.61-1.1-1.63-2.06-.02-.73-.01-1.47-.01-2.2,0-10.08,0-20.16,0-30.24,0-.14,0-.28,0-.58-.88,1.15-1.67,2.19-2.45,3.23-7.66,10.17-15.32,20.33-22.97,30.5-.17.22-.32.47-.51.67-.64.7-1.59.94-2.41.64-.85-.31-1.43-1.14-1.45-2.09-.02-1.02,0-2.03,0-3.05,0-4.63-.01-9.25.01-13.88,0-.54-.17-.62-.65-.62-7.51.01-15.01.01-22.52,0-1.15,0-1.93-.51-2.28-1.49-.5-1.37.47-2.85,1.93-2.89,1.2-.03,2.41,0,3.61,0,6.45,0,12.9,0,19.36.01.44,0,.55-.11.55-.55-.02-5.55,0-11.1-.01-16.65,0-1.07.34-1.92,1.37-2.37,1.41-.62,2.97.35,3.03,1.89.03.69.02,1.39.02,2.09,0,10.14,0,20.28-.01,30.41,0,.13,0,.26,0,.56Z"/>
  </g>
  <g id="Choco">
    <polygon class="cls-19" points="261.61 533.42 261.61 526.72 276.34 517.77 309.21 515.24 329.59 513.67 329.59 520.38 317.74 537.49 261.61 533.42"/>
    <polygon class="cls-73" points="306.3 516.45 349.36 516.96 349.36 519.73 340.14 538.56 303.08 535.61 306.3 516.45"/>
    <polygon class="cls-8" points="306.3 513.67 349.36 516.96 339.73 535.76 303.08 532.84 306.3 513.67"/>
    <line class="cls-74" x1="340.49" y1="516.79" x2="331.54" y2="534.65"/>
    <line class="cls-74" x1="332.13" y1="515.79" x2="323.18" y2="533.64"/>
    <line class="cls-74" x1="325.12" y1="514.95" x2="316.17" y2="532.8"/>
    <line class="cls-74" x1="340.94" y1="529.26" x2="306.5" y2="525.91"/>
    <line class="cls-74" x1="343.77" y1="522.2" x2="309.33" y2="518.85"/>
    <polygon class="cls-19" points="261.61 533.42 261.61 526.72 276.34 517.77 309.21 515.24 317.74 530.78 317.74 537.49 261.61 533.42"/>
    <polygon class="cls-7" points="261.61 526.72 276.34 511.07 329.59 513.67 326.22 515.24 312.97 519.61 317.74 530.78 277.16 527.84 261.61 526.72"/>
    <path class="cls-36" d="m293.13,522.47l20.4-1.54s7.06.02,12.69-5.68c-14.74.65-33.09,7.22-33.09,7.22Z"/>
  </g>
  <g id="Vinyl">
    <path class="cls-6" d="m268.8,837.32c-21.41-16.95-48.8-13.35-61.52,8.72-13.16,22.84-5.64,56.53,17.19,74.48,22.78,17.91,51.03,12.45,62.75-11.41,11.33-23.06,2.94-54.87-18.43-71.79Zm-19.52,43.57c-.78,1.59-2.67,1.96-4.19.76-1.52-1.2-2.02-3.44-1.15-4.97.85-1.47,2.68-1.71,4.1-.58,1.43,1.13,1.99,3.25,1.23,4.79Z"/>
    <path class="cls-50" d="m269.75,836.75c-21.41-16.95-48.8-13.35-61.52,8.72-13.16,22.84-5.64,56.53,17.19,74.48,22.78,17.91,51.03,12.45,62.75-11.41,11.33-23.06,2.94-54.87-18.43-71.79Zm-19.52,43.57c-.78,1.59-2.67,1.96-4.19.76-1.52-1.2-2.02-3.44-1.15-4.97.85-1.47,2.68-1.71,4.1-.58,1.43,1.13,1.99,3.25,1.23,4.79Z"/>
    <g id="Layer_33" data-name="Layer 33">
      <path class="cls-9" d="m218.39,837.57s-14.61,17.61-12.52,31.7c1.3-17.86,12.52-31.7,12.52-31.7Z"/>
      <path class="cls-72" d="m268.58,888.04s4.4-14.02-5.06-24.12c-4.02-4.3-10.3-8.93-20.42-7.69"/>
      <path class="cls-9" d="m227.65,888.96s8.09,22.43,30.26,12.78c-4.79,1.66-7.82,4.42-15.39,2.48-10.6-2.71-15.52-15.26-15.52-15.26"/>
      <path class="cls-9" d="m276.01,897.11s10.94-11.84-1.32-31.26c2.4,4.27,4.93,6.66,6.01,14.25,1.51,10.62-4.49,17.63-4.49,17.63"/>
    </g>
    <path class="cls-61" d="m255.15,864.75c-6.99-5.53-15.94-4.36-20.09,2.85-4.3,7.46-1.84,18.46,5.62,24.33,7.44,5.85,16.67,4.07,20.5-3.73,3.7-7.53.96-17.92-6.02-23.45Zm-4.93,15.57c-.78,1.59-2.67,1.96-4.19.76-1.52-1.2-2.02-3.44-1.15-4.97.85-1.47,2.68-1.71,4.1-.58,1.43,1.13,1.99,3.25,1.23,4.79Z"/>
  </g>
  <g id="Chair">
    <path class="cls-30" d="m531.36,533.57l-45.44,154s4.22,5.92,11.73,3.03c7.51-2.89,41.8-154.38,41.8-154.38l-8.09-2.65Z"/>
    <path class="cls-18" d="m543.82,538.53s-.05,1-.14,2.82c-.95,19.35,4.59,194.35,11.13,194.36,15.77.01,2.88-204.78-1.74-202.13s-9.25,4.96-9.25,4.96Z"/>
    <path class="cls-30" d="m570.98,537.95s45.05,160.52,53.14,156.44c8.09-4.08-42.74-161.45-46.21-162.41-3.47-.96-1.73,5.39-6.93,5.97Z"/>
    <path class="cls-66" d="m570.98,531.88s27.61,59.25,34.89,89.28c5.46,22.55,18.26,73.22,18.26,73.22,0,0,6.41,2.72.87-21.52-11.17-48.93-39.14-143.75-43.58-144.81-6.64-1.58-10.44,3.82-10.44,3.82Z"/>
    <path class="cls-38" d="m552.99,529.75s4.54,87.79,6.5,124.79-4.69,81.17-4.69,81.17c0,0,4.52,2.65,8.61-9.06,4.09-11.72-5.67-193.71-5.67-193.71l-4.75-3.19Z"/>
    <path class="cls-30" d="m616.55,533.45c-6.96,13.69-41.61,23.51-76.91,21.56-29.85-1.65-49.41-11.14-49.08-22.2.06-1.9-.78-8.55.49-10.5,8.45-12.98,43.34-17.21,76.6-15.59,27.83,1.35,48.32,4.18,50.46,14.58.44,2.14-.41,9.9-1.56,12.16Z"/>
    <path class="cls-37" d="m616.9,525.93c-6.96,13.69-41.61,23.51-76.91,21.56-34.97-1.93-55.82-14.63-47.11-27.99s41.87-21.92,75.12-20.3c33.55,1.63,55.65,13.45,48.9,26.74Z"/>
    <path class="cls-27" d="m546.12,641.27l16.62.12s2.19,55.3.9,82.17c-.56,11.74-5.04,15.03-8.84,12.14-1.2-5.78-3.39-14.82-4.44-25.53-3.42-34.76-4.24-68.91-4.24-68.91Z"/>
  </g>
</svg>