<?xml version="1.0" encoding="UTF-8"?>
<svg id="Chair" xmlns="http://www.w3.org/2000/svg" width="1000" height="1000" viewBox="0 0 1000 1000">
  <defs>
    <style>
      .cls-1 {
        fill: #f7267b;
      }

      .cls-1, .cls-2, .cls-3, .cls-4, .cls-5, .cls-6 {
        stroke-width: 0px;
      }

      .cls-2 {
        fill: #2d2c2c;
      }

      .cls-3 {
        fill: #353535;
      }

      .cls-4 {
        fill: #ed7293;
      }

      .cls-5 {
        fill: #3a3a3a;
      }

      .cls-6 {
        fill: #f7376a;
        opacity: .7;
      }
    </style>
  </defs>
  <polygon class="cls-4" points="1880.33 -119.09 3008.05 1751.62 -502.62 1937.26 -44.73 -64.93 1880.33 -119.09"/>
  <polyline class="cls-6" points="670.21 609.5 658.04 623.65 329.79 625.68 329.93 393.98 337.4 374.32 670.21 609.5"/>
  <polygon class="cls-3" points="665.88 603.09 341.73 609.5 337.4 603.09 337.4 374.32 665.88 374.32 670.21 380.73 665.88 603.09"/>
  <rect class="cls-5" x="341.73" y="380.73" width="328.48" height="228.77"/>
  <rect class="cls-2" x="355.04" y="392.56" width="301.85" height="205.11"/>
  <path class="cls-1" d="m480.87,520.44c3.11-4.12,6.01-7.95,8.91-11.8,15.23-20.21,30.45-40.42,45.68-60.63.39-.52.75-1.06,1.16-1.56,1.42-1.74,3.47-2.37,5.42-1.69,1.91.66,3.18,2.48,3.18,4.7,0,12.07-.02,24.13-.03,36.2,0,1.54,0,1.52,1.59,1.52,16.33,0,32.67,0,49,.02,2.58,0,4.64,2.1,4.72,4.76.07,2.35-2,4.48-4.56,4.69-.32.03-.65.01-.97.01-15.97,0-31.94,0-47.9,0q-1.88,0-1.88,1.91c0,11.86,0,23.73,0,35.59,0,3.42-2.83,5.77-5.94,5-1.95-.49-3.47-2.38-3.53-4.45-.04-1.58-.03-3.17-.03-4.75,0-21.78.01-43.55.02-65.33,0-.31,0-.62,0-1.25-1.89,2.49-3.6,4.73-5.29,6.97-16.54,21.96-33.08,43.92-49.62,65.88-.37.49-.69,1.01-1.1,1.45-1.38,1.5-3.44,2.03-5.2,1.38-1.83-.67-3.09-2.46-3.13-4.51-.04-2.19-.01-4.39-.01-6.58,0-9.99-.02-19.99.03-29.98,0-1.17-.36-1.34-1.41-1.34-16.21.03-32.42.02-48.64.02-2.6,0-4.32-1.21-5.03-3.52-.9-2.91,1.41-5.86,4.45-5.94,2.54-.07,5.08,0,7.62,0,13.94,0,27.87-.01,41.81.02.66,0,1.19-.53,1.19-1.19-.03-11.98-.01-23.97-.03-35.95,0-2.43.82-4.33,3.32-5.27,2.93-1.1,6.07,1.14,6.2,4.26.06,1.49.03,2.99.03,4.48,0,21.9-.01,43.79-.02,65.69,0,.28,0,.56,0,1.2Z"/>
</svg>